<?xml version="1.0" encoding="UTF-8" standalone="no"?>
<!-- Created with Inkscape (http://www.inkscape.org/) -->

<svg
   xmlns:dc="http://purl.org/dc/elements/1.1/"
   xmlns:cc="http://creativecommons.org/ns#"
   xmlns:rdf="http://www.w3.org/1999/02/22-rdf-syntax-ns#"
   xmlns:svg="http://www.w3.org/2000/svg"
   xmlns="http://www.w3.org/2000/svg"
   xmlns:sodipodi="http://sodipodi.sourceforge.net/DTD/sodipodi-0.dtd"
   xmlns:inkscape="http://www.inkscape.org/namespaces/inkscape"
   width="260.15625"
   height="12.49835"
   id="svg3534"
   version="1.1"
   inkscape:version="0.48.4 r9939"
   sodipodi:docname="cart-line.svg"
   inkscape:export-filename="/Projects/Design/mac/cart-line2.png"
   inkscape:export-xdpi="90"
   inkscape:export-ydpi="90">
  <defs
     id="defs3536" />
  <sodipodi:namedview
     id="base"
     pagecolor="#ffffff"
     bordercolor="#666666"
     borderopacity="1.0"
     inkscape:pageopacity="0.0"
     inkscape:pageshadow="2"
     inkscape:zoom="1"
     inkscape:cx="65.365463"
     inkscape:cy="39.211698"
     inkscape:document-units="px"
     inkscape:current-layer="layer1"
     showgrid="false"
     inkscape:window-width="1375"
     inkscape:window-height="876"
     inkscape:window-x="65"
     inkscape:window-y="24"
     inkscape:window-maximized="1"
     showguides="true"
     inkscape:guide-bbox="true"
     fit-margin-top="0"
     fit-margin-left="0"
     fit-margin-right="0"
     fit-margin-bottom="0">
    <sodipodi:guide
       orientation="0,1"
       position="272.99386,6.4132074"
       id="guide3075" />
    <sodipodi:guide
       orientation="1,0"
       position="0.09375,-140.40899"
       id="guide3077" />
    <sodipodi:guide
       orientation="1,0"
       position="260.09375,-158.40899"
       id="guide3079" />
    <sodipodi:guide
       orientation="1,0"
       position="130.15829,20.732127"
       id="guide3081" />
  </sodipodi:namedview>
  <metadata
     id="metadata3539">
    <rdf:RDF>
      <cc:Work
         rdf:about="">
        <dc:format>image/svg+xml</dc:format>
        <dc:type
           rdf:resource="http://purl.org/dc/dcmitype/StillImage" />
        <dc:title></dc:title>
      </cc:Work>
    </rdf:RDF>
  </metadata>
  <g
     inkscape:label="Layer 1"
     inkscape:groupmode="layer"
     id="layer1"
     transform="translate(-144.90625,-571.45484)">
    <path
       d="m 281.159,577.70407 c 0,3.45137 -2.68642,6.24912 -6.00056,6.24912 -3.31303,0 -5.99944,-2.79775 -5.99944,-6.24912 0,-3.45146 2.68641,-6.24923 5.99944,-6.24923 3.31414,0 6.00056,2.79777 6.00056,6.24923"
       style="fill:#231f20;fill-opacity:1;fill-rule:nonzero;stroke:none"
       id="path64"
       inkscape:connector-curvature="0"
       inkscape:export-filename="/Projects/Design/mac/cart-line2.png"
       inkscape:export-xdpi="90"
       inkscape:export-ydpi="90" />
    <g
       id="g66"
       transform="matrix(2.3042782,0,0,-2.3997556,145.11678,577.683)">
      <path
         d="M 0,0 110.624,0"
         style="fill:none;stroke:#231f20;stroke-width:0.53156835;stroke-linecap:butt;stroke-linejoin:miter;stroke-miterlimit:10;stroke-opacity:1;stroke-dasharray:none"
         id="path68"
         inkscape:connector-curvature="0" />
    </g>
    <g
       id="g268"
       transform="matrix(1.7392279,0,0,-1.8135826,154.27437,577.55684)">
      <path
         d="m 0,0 c 0,-1.389 -1.126,-2.516 -2.516,-2.516 -1.389,0 -2.515,1.127 -2.515,2.516 0,1.389 1.126,2.516 2.515,2.516 C -1.126,2.516 0,1.389 0,0"
         style="fill:#ffffff;fill-opacity:1;fill-rule:nonzero;stroke:none"
         id="path270"
         inkscape:connector-curvature="0" />
    </g>
    <path
       d="m 154.275,577.69718 c 0,2.51908 -1.95833,4.563 -4.37581,4.563 -2.41585,0 -4.37419,-2.04392 -4.37419,-4.563 0,-2.519 1.95834,-4.56294 4.37419,-4.56294 2.41748,0 4.37581,2.04394 4.37581,4.56294 z"
       style="fill:none;stroke:#231f20;stroke-width:1.24999988;stroke-linecap:butt;stroke-linejoin:miter;stroke-miterlimit:10;stroke-opacity:1;stroke-dasharray:none"
       id="path274"
       inkscape:connector-curvature="0" />
    <g
       id="g276"
       transform="matrix(1.7392144,0,0,-1.8135681,404.43021,577.34988)"
       inkscape:export-filename="/Projects/Design/mac/cart-line3.png"
       inkscape:export-xdpi="90"
       inkscape:export-ydpi="90">
      <path
         d="m 0,0 c 0,-1.389 -1.126,-2.516 -2.516,-2.516 -1.389,0 -2.515,1.127 -2.515,2.516 0,1.389 1.126,2.516 2.515,2.516 C -1.126,2.516 0,1.389 0,0"
         style="fill:#ffffff;fill-opacity:1;fill-rule:nonzero;stroke:none"
         id="path278"
         inkscape:connector-curvature="0" />
    </g>
    <path
       d="m 404.431,577.49023 c 0,2.51906 -1.95834,4.56295 -4.37578,4.56295 -2.4158,0 -4.37422,-2.04389 -4.37422,-4.56295 0,-2.51899 1.95842,-4.56291 4.37422,-4.56291 2.41744,0 4.37578,2.04392 4.37578,4.56291 z"
       style="fill:none;stroke:#231f20;stroke-width:1.24999988;stroke-linecap:butt;stroke-linejoin:miter;stroke-miterlimit:10;stroke-opacity:1;stroke-dasharray:none"
       id="path282"
       inkscape:connector-curvature="0"
       inkscape:export-filename="/Projects/Design/mac/cart-line3.png"
       inkscape:export-xdpi="90"
       inkscape:export-ydpi="90" />
    <flowRoot
       xml:space="preserve"
       id="flowRoot3067-0"
       style="font-size:32px;font-style:normal;font-variant:normal;font-weight:500;font-stretch:normal;line-height:125%;letter-spacing:0px;word-spacing:0px;fill:#000000;fill-opacity:1;stroke:none;font-family:Century Schoolbook L;-inkscape-font-specification:Century Schoolbook L Medium"
       transform="translate(261.05563,31.047665)"><flowRegion
         id="flowRegion3069-5"><rect
           id="rect3071-2"
           width="91"
           height="70"
           x="86"
           y="453.36218" /></flowRegion><flowPara
         id="flowPara3073-8"
         style="font-size:24px;font-style:normal;font-variant:normal;font-weight:normal;font-stretch:normal;line-height:135.00000238%;word-spacing:0px;font-family:Garuda;-inkscape-font-specification:Garuda">Rearrange </flowPara></flowRoot>  </g>
</svg>
