<?xml version="1.0" encoding="utf-8"?>
<!-- Generator: Adobe Illustrator 17.1.0, SVG Export Plug-In . SVG Version: 6.00 Build 0)  -->
<!DOCTYPE svg PUBLIC "-//W3C//DTD SVG 1.1//EN" "http://www.w3.org/Graphics/SVG/1.1/DTD/svg11.dtd">
<svg version="1.1" id="Capa_1" xmlns="http://www.w3.org/2000/svg" xmlns:xlink="http://www.w3.org/1999/xlink" x="0px" y="0px"
	 viewBox="0 0 80 80" enable-background="new 0 0 80 80" xml:space="preserve">
<g opacity="0.5">
	<g>
		<g enable-background="new    ">
			<defs>
				<polygon id="SVGID_1_" enable-background="new    " points="5.4,79.5 7.2,41.8 72.5,41.8 74.3,79.5 				"/>
			</defs>
			<clipPath id="SVGID_2_">
				<use xlink:href="#SVGID_1_"  overflow="visible"/>
			</clipPath>
			<g clip-path="url(#SVGID_2_)">
				<g>
					<g>
						<g>
							<g>
								<defs>
									<path id="SVGID_3_" d="M72.5,57c-0.1-2.1-1.1-4-2.8-5.8c-1.7-1.8-4.1-3.3-7.1-4.7c-2.9-1.3-6.4-2.4-10.2-3.1
										c-3.8-0.7-8-1.1-12.4-1.1c-4.4,0-8.6,0.4-12.4,1.1c-3.8,0.7-7.3,1.8-10.2,3.1c-2.9,1.3-5.4,2.9-7.1,4.7
										C8.6,53,7.6,55,7.5,57c0,0.9,0.1,1.9,0.4,2.8c0.3,0.9,0.8,1.8,1.5,2.6c0.7,0.8,1.5,1.7,2.4,2.4c1,0.8,2.1,1.5,3.3,2.2l0,0
										l0.1,0c0.2,0.1,1.9,0.9,4.2,2c2.3,1.1,5.4,2.6,8.4,4c3,1.4,6,2.9,8.3,4c2.3,1.1,3.8,1.8,3.8,1.8l0.1,0l0.1,0
										c0,0,1.5-0.7,3.8-1.8c2.3-1.1,5.3-2.5,8.3-4c3-1.4,6.1-2.9,8.4-4c2.3-1.1,4-1.9,4.2-2l0.1,0l0,0c1.2-0.7,2.3-1.4,3.3-2.2
										c1-0.8,1.8-1.6,2.4-2.4c0.7-0.8,1.2-1.7,1.5-2.6C72.4,58.9,72.5,58,72.5,57 M40,69.5c-3.8,0-7.4-0.4-10.7-1
										c-3.3-0.7-6.2-1.6-8.6-2.7c-2.4-1.2-4.4-2.5-5.7-4c-1.3-1.5-2-3.2-1.9-4.9c0.1-1.7,0.9-3.3,2.3-4.8
										c1.4-1.5,3.4-2.8,5.8-3.9c2.4-1.1,5.3-2,8.5-2.6c3.2-0.6,6.7-0.9,10.3-0.9c3.7,0,7.1,0.3,10.3,0.9c3.2,0.6,6.1,1.5,8.5,2.6
										c2.4,1.1,4.4,2.4,5.8,3.9c1.4,1.5,2.2,3.1,2.3,4.8c0.1,1.7-0.6,3.4-1.9,4.9c-1.3,1.5-3.3,2.9-5.7,4
										c-2.4,1.2-5.4,2.1-8.6,2.7C47.4,69.1,43.8,69.5,40,69.5"/>
								</defs>
								<clipPath id="SVGID_4_">
									<use xlink:href="#SVGID_3_"  overflow="visible"/>
								</clipPath>
								<g clip-path="url(#SVGID_4_)">
									<defs>
										<path id="SVGID_5_" d="M40,69.5c-3.8,0-7.4-0.4-10.7-1c-3.3-0.7-6.2-1.6-8.6-2.7c-2.4-1.2-4.4-2.5-5.7-4
											c-1.3-1.5-2-3.2-1.9-4.9c0.1-1.7,0.9-3.3,2.3-4.8c1.4-1.5,3.4-2.8,5.8-3.9c2.4-1.1,5.3-2,8.5-2.6
											c3.2-0.6,6.7-0.9,10.3-0.9c3.7,0,7.1,0.3,10.3,0.9c3.2,0.6,6.1,1.5,8.5,2.6c2.4,1.1,4.4,2.4,5.8,3.9
											c1.4,1.5,2.2,3.1,2.3,4.8c0.1,1.7-0.6,3.4-1.9,4.9c-1.3,1.5-3.3,2.9-5.7,4c-2.4,1.2-5.4,2.1-8.6,2.7
											C47.4,69.1,43.8,69.5,40,69.5 M40,42.3c-4.4,0-8.6,0.4-12.4,1.1c-3.8,0.7-7.3,1.8-10.2,3.1c-2.9,1.3-5.4,2.9-7.1,4.7
											C8.6,53,7.6,55,7.5,57c0,0.9,0.1,1.9,0.4,2.8c0.3,0.9,0.8,1.8,1.5,2.6c0.7,0.8,1.5,1.7,2.4,2.4c1,0.8,2.1,1.5,3.3,2.2l0,0
											l0.1,0c0.2,0.1,1.9,0.9,4.2,2c2.3,1.1,5.4,2.6,8.4,4c3,1.4,6,2.9,8.3,4c2.3,1.1,3.8,1.8,3.8,1.8l0.1,0l0.1,0
											c0,0,1.5-0.7,3.8-1.8c2.3-1.1,5.3-2.5,8.3-4c3-1.4,6.1-2.9,8.4-4c2.3-1.1,4-1.9,4.2-2l0.1,0l0,0c1.2-0.7,2.3-1.4,3.3-2.2
											c1-0.8,1.8-1.6,2.4-2.4c0.7-0.8,1.2-1.7,1.5-2.6c0.3-0.9,0.5-1.8,0.4-2.8c-0.1-2.1-1.1-4-2.8-5.8
											c-1.7-1.8-4.1-3.3-7.1-4.7c-2.9-1.3-6.4-2.4-10.2-3.1C48.6,42.7,44.4,42.3,40,42.3"/>
									</defs>
									<clipPath id="SVGID_6_">
										<use xlink:href="#SVGID_5_"  overflow="visible"/>
									</clipPath>
									<g clip-path="url(#SVGID_6_)">
										<defs>
											<polyline id="SVGID_7_" points="74.3,79.5 5.4,79.5 7.2,41.8 72.5,41.8 74.3,79.5 											"/>
										</defs>
										<clipPath id="SVGID_8_">
											<use xlink:href="#SVGID_7_"  overflow="visible"/>
										</clipPath>
										<g clip-path="url(#SVGID_8_)">
											
												<image overflow="visible" width="69" height="38" xlink:href="F4821D384D781420.png"  transform="matrix(1 0 0 1 5.4216 41.8004)">
											</image>
										</g>
									</g>
								</g>
							</g>
							<g>
								<defs>
									<path id="SVGID_9_" d="M56.6,60.8c-0.2,0.2-0.4,0.4-0.6,0.5c-0.3,0.2-0.6,0.3-0.9,0.5c-0.4,0.2-0.8,0.3-1.2,0.5
										c-0.5,0.2-1,0.3-1.6,0.5c-0.5,0.2-1.1,0.3-1.6,0.4c-0.5,0.1-1,0.2-1.5,0.3c-0.5,0.1-1,0.1-1.5,0.2c-0.5,0-1,0.1-1.4,0.1
										c-0.2,0-0.3,0-0.5,0c-0.2,0-0.3,0-0.5-0.1c-0.2,0-0.3-0.1-0.4-0.1c-0.1,0-0.3-0.1-0.4-0.1c-0.1-0.1-0.3-0.1-0.4-0.2
										c-0.1-0.1-0.2-0.1-0.3-0.2c-0.1-0.1-0.1-0.1-0.2-0.2c0-0.1-0.1-0.2-0.1-0.2c0,0,0-0.1,0-0.1c0,0,0-0.1,0-0.1
										c0,0,0-0.1,0.1-0.1c0,0,0.1-0.1,0.1-0.1L52,53c0,0,0.1-0.1,0.1-0.1c0,0,0-0.1,0.1-0.1c0,0,0-0.1,0-0.1c0,0,0,0,0-0.1
										c0,0,0-0.1,0-0.1c0,0-0.1-0.1-0.1-0.1c-0.1,0-0.1,0-0.2-0.1c-0.1,0-0.2,0-0.3,0c-0.2,0-0.4,0-0.7,0c-0.2,0-0.5,0.1-0.7,0.1
										c-0.3,0.1-0.5,0.1-0.8,0.2c-0.3,0.1-0.6,0.2-0.8,0.3c-0.3,0.1-0.6,0.2-0.8,0.4c-0.2,0.1-0.5,0.2-0.7,0.3
										c-0.2,0.1-0.4,0.2-0.5,0.3c-0.1,0.1-0.3,0.2-0.4,0.3l-8.3,9.3h-5.7L41.9,53c0,0,0.1-0.1,0.1-0.1c0,0,0-0.1,0.1-0.1
										c0,0,0-0.1,0-0.1s0,0,0-0.1c0,0,0-0.1,0-0.1c0,0-0.1-0.1-0.1-0.1c0,0-0.1,0-0.2,0c-0.1,0-0.1,0-0.2,0c-0.2,0-0.4,0-0.7,0
										c-0.2,0-0.5,0.1-0.7,0.1c-0.2,0.1-0.5,0.1-0.8,0.2c-0.3,0.1-0.6,0.2-0.8,0.3c-0.3,0.1-0.5,0.2-0.7,0.3
										c-0.2,0.1-0.4,0.2-0.6,0.3c-0.2,0.1-0.3,0.2-0.5,0.3c-0.1,0.1-0.3,0.2-0.4,0.3l-8.5,9.3h-6L31.8,53c0,0,0,0,0,0s0,0,0,0
										s0,0,0,0c0,0,0,0,0,0c0,0,0-0.1,0-0.1c0,0,0-0.1-0.1-0.1c0,0-0.1-0.1-0.1-0.1c-0.1,0-0.1-0.1-0.2-0.1
										c-0.1,0-0.1-0.1-0.2-0.1c-0.1,0-0.1,0-0.2-0.1c-0.1,0-0.1,0-0.2,0c-0.1,0-0.1,0-0.2,0h-6.7c-0.2,0-0.3,0-0.4,0
										c-0.1,0-0.2-0.1-0.3-0.1c-0.1,0-0.1-0.1-0.2-0.2c0-0.1-0.1-0.1-0.1-0.2c0-0.1,0-0.2,0.1-0.2c0-0.1,0.1-0.1,0.2-0.2
										c0.1,0,0.2-0.1,0.3-0.1c0.1,0,0.3,0,0.5,0h9.4c0.6,0,1.2,0,1.7,0c0.5,0,0.9,0.1,1.3,0.1c0.4,0.1,0.7,0.1,0.9,0.2
										c0.2,0.1,0.4,0.2,0.5,0.3c0.5-0.1,0.9-0.2,1.4-0.3c0.5-0.1,0.9-0.2,1.4-0.2c0.4-0.1,0.9-0.1,1.3-0.1c0.4,0,0.9,0,1.3,0
										c0.2,0,0.5,0,0.7,0c0.2,0,0.5,0,0.7,0c0.2,0,0.4,0,0.7,0c0.2,0,0.4,0,0.6,0.1c0.3,0,0.6,0.1,0.9,0.1c0.2,0,0.5,0.1,0.6,0.1
										c0.2,0.1,0.3,0.1,0.4,0.2c0.1,0.1,0.1,0.1,0.1,0.2c0.3-0.1,0.6-0.2,0.9-0.3c0.3-0.1,0.7-0.2,1.1-0.2
										c0.4-0.1,0.9-0.1,1.3-0.1c0.5,0,1,0,1.6,0h0.4c0.3,0,0.5,0,0.8,0c0.2,0,0.5,0,0.7,0.1c0.2,0,0.5,0.1,0.7,0.1
										c0.2,0,0.5,0.1,0.7,0.1c0.3,0.1,0.5,0.1,0.7,0.2c0.2,0.1,0.4,0.2,0.5,0.2c0.1,0.1,0.2,0.2,0.3,0.3c0.1,0.1,0.1,0.2,0.1,0.3
										c0,0,0,0.1,0,0.1c0,0,0,0.1,0,0.1c0,0,0,0.1-0.1,0.1c0,0-0.1,0.1-0.1,0.1l-7.8,8.8l0,0.1c0,0,0,0,0,0.1c0,0,0,0,0.1,0
										c0,0,0.1,0,0.1,0c0,0,0.1,0,0.2,0c0.2,0,0.4,0,0.7,0c0.2,0,0.5-0.1,0.7-0.1c0.3-0.1,0.5-0.1,0.8-0.2
										c0.3-0.1,0.6-0.2,0.9-0.3c0.3-0.1,0.6-0.2,0.8-0.3c0.2-0.1,0.5-0.2,0.7-0.3c0.2-0.1,0.4-0.2,0.5-0.3
										c0.1-0.1,0.3-0.2,0.4-0.3L56.6,60.8"/>
								</defs>
								<clipPath id="SVGID_10_">
									<use xlink:href="#SVGID_9_"  overflow="visible"/>
								</clipPath>
								<g clip-path="url(#SVGID_10_)">
									<defs>
										<path id="SVGID_11_" d="M53.4,51.1h-0.4c-0.6,0-1.1,0-1.6,0c-0.5,0-0.9,0.1-1.3,0.1c-0.4,0.1-0.8,0.1-1.1,0.2
											c-0.3,0.1-0.6,0.2-0.9,0.3c0-0.1-0.1-0.1-0.1-0.2c-0.1-0.1-0.2-0.1-0.4-0.2c-0.2-0.1-0.4-0.1-0.6-0.1
											c-0.2,0-0.5-0.1-0.9-0.1c-0.2,0-0.4,0-0.6-0.1c-0.2,0-0.4,0-0.7,0c-0.2,0-0.4,0-0.7,0c-0.2,0-0.5,0-0.7,0
											c-0.4,0-0.9,0-1.3,0c-0.4,0-0.9,0.1-1.3,0.1c-0.4,0.1-0.9,0.1-1.4,0.2c-0.5,0.1-0.9,0.2-1.4,0.3c-0.1-0.1-0.3-0.2-0.5-0.3
											c-0.2-0.1-0.6-0.2-0.9-0.2c-0.4-0.1-0.8-0.1-1.3-0.1c-0.5,0-1.1,0-1.7,0H24c-0.2,0-0.3,0-0.5,0c-0.1,0-0.2,0.1-0.3,0.1
											c-0.1,0-0.2,0.1-0.2,0.2c0,0.1-0.1,0.1-0.1,0.2c0,0.1,0,0.2,0.1,0.2c0,0.1,0.1,0.1,0.2,0.2c0.1,0,0.2,0.1,0.3,0.1
											c0.1,0,0.2,0,0.4,0h6.7c0.1,0,0.1,0,0.2,0c0.1,0,0.1,0,0.2,0c0.1,0,0.1,0,0.2,0.1c0.1,0,0.1,0,0.2,0.1
											c0.1,0,0.1,0.1,0.2,0.1c0.1,0,0.1,0.1,0.1,0.1c0,0,0.1,0.1,0.1,0.1c0,0,0,0.1,0,0.1c0,0,0,0,0,0c0,0,0,0,0,0s0,0,0,0
											s0,0,0,0l-9.9,10.8h6l8.5-9.3c0.1-0.1,0.2-0.2,0.4-0.3c0.1-0.1,0.3-0.2,0.5-0.3c0.2-0.1,0.4-0.2,0.6-0.3
											c0.2-0.1,0.5-0.2,0.7-0.3c0.3-0.1,0.6-0.2,0.8-0.3c0.3-0.1,0.5-0.2,0.8-0.2c0.2-0.1,0.5-0.1,0.7-0.1c0.2,0,0.4,0,0.7,0
											c0.1,0,0.2,0,0.2,0c0.1,0,0.1,0,0.2,0c0,0,0.1,0,0.1,0.1c0,0,0,0.1,0,0.1c0,0,0,0,0,0.1s0,0.1,0,0.1c0,0,0,0.1-0.1,0.1
											c0,0-0.1,0.1-0.1,0.1l-9.7,10.8h5.7l8.3-9.3c0.1-0.1,0.2-0.2,0.4-0.3c0.1-0.1,0.3-0.2,0.5-0.3c0.2-0.1,0.4-0.2,0.7-0.3
											c0.2-0.1,0.5-0.2,0.8-0.4c0.3-0.1,0.6-0.2,0.8-0.3c0.3-0.1,0.5-0.2,0.8-0.2c0.3-0.1,0.5-0.1,0.7-0.1c0.2,0,0.5,0,0.7,0
											c0.1,0,0.2,0,0.3,0c0.1,0,0.1,0,0.2,0.1c0.1,0,0.1,0,0.1,0.1c0,0,0,0.1,0,0.1c0,0,0,0,0,0.1c0,0,0,0.1,0,0.1
											c0,0,0,0.1-0.1,0.1c0,0-0.1,0.1-0.1,0.1l-8.1,9.1c0,0-0.1,0.1-0.1,0.1c0,0-0.1,0.1-0.1,0.1c0,0,0,0.1,0,0.1
											c0,0,0,0.1,0,0.1c0,0.1,0,0.2,0.1,0.2c0,0.1,0.1,0.1,0.2,0.2c0.1,0.1,0.2,0.1,0.3,0.2c0.1,0.1,0.2,0.1,0.4,0.2
											c0.1,0.1,0.3,0.1,0.4,0.1c0.1,0,0.3,0.1,0.4,0.1c0.2,0,0.3,0,0.5,0.1c0.2,0,0.3,0,0.5,0c0.5,0,0.9,0,1.4-0.1
											c0.5,0,1-0.1,1.5-0.2c0.5-0.1,1-0.2,1.5-0.3c0.5-0.1,1-0.2,1.6-0.4c0.6-0.2,1.1-0.3,1.6-0.5c0.5-0.2,0.9-0.3,1.2-0.5
											c0.4-0.2,0.7-0.3,0.9-0.5c0.3-0.2,0.5-0.4,0.6-0.5l-1.1-0.7c-0.1,0.1-0.2,0.2-0.4,0.3c-0.1,0.1-0.3,0.2-0.5,0.3
											c-0.2,0.1-0.4,0.2-0.7,0.3c-0.2,0.1-0.5,0.2-0.8,0.3c-0.3,0.1-0.6,0.2-0.9,0.3c-0.3,0.1-0.5,0.1-0.8,0.2
											C51.3,61.9,51,62,50.8,62c-0.2,0-0.5,0-0.7,0c-0.1,0-0.1,0-0.2,0c0,0-0.1,0-0.1,0c0,0-0.1,0-0.1,0c0,0,0,0,0-0.1l0-0.1
											l7.8-8.8c0,0,0.1-0.1,0.1-0.1c0,0,0.1-0.1,0.1-0.1c0,0,0-0.1,0-0.1c0,0,0-0.1,0-0.1c0-0.1,0-0.2-0.1-0.3
											c-0.1-0.1-0.2-0.2-0.3-0.3c-0.1-0.1-0.3-0.2-0.5-0.2c-0.2-0.1-0.4-0.1-0.7-0.2c-0.2-0.1-0.4-0.1-0.7-0.1
											c-0.2,0-0.5-0.1-0.7-0.1c-0.2,0-0.5,0-0.7-0.1C53.9,51.1,53.6,51.1,53.4,51.1"/>
									</defs>
									<clipPath id="SVGID_12_">
										<use xlink:href="#SVGID_11_"  overflow="visible"/>
									</clipPath>
									<g clip-path="url(#SVGID_12_)">
										<defs>
											<polyline id="SVGID_13_" points="59.5,64.1 21.2,64.1 21.6,50.7 59.1,50.7 59.5,64.1 											"/>
										</defs>
										<clipPath id="SVGID_14_">
											<use xlink:href="#SVGID_13_"  overflow="visible"/>
										</clipPath>
										<g clip-path="url(#SVGID_14_)">
											
												<image overflow="visible" width="39" height="14" xlink:href="F4821D384D781421.png"  transform="matrix(1 0 0 1 21.2455 50.7256)">
											</image>
										</g>
									</g>
								</g>
							</g>
						</g>
					</g>
				</g>
			</g>
		</g>
	</g>
</g>
<g>
	<linearGradient id="SVGID_15_" gradientUnits="userSpaceOnUse" x1="39.6024" y1="3.5764" x2="40.6024" y2="76.5764">
		<stop  offset="0.2204" style="stop-color:#58595B"/>
		<stop  offset="0.5858" style="stop-color:#231F20"/>
	</linearGradient>
	<path fill="url(#SVGID_15_)" d="M72.6,32.6C72.6,14.6,58,0,40,0S7.4,14.6,7.4,32.6c0,8.2,3,15.7,8,21.4l0,0l0.1,0.1
		c0.9,1.1,24.4,24.4,24.4,24.4l0.1-0.1l0.1,0.1c0,0,23.5-23.4,24.4-24.4l0.1-0.1l0,0C69.6,48.3,72.6,40.8,72.6,32.6z M40,59.2
		c-15,0-27.1-12.1-27.1-27.1S25,5,40,5s27.1,12.1,27.1,27.1S55,59.2,40,59.2z"/>
	<g>
		<linearGradient id="SVGID_16_" gradientUnits="userSpaceOnUse" x1="39.5711" y1="3.5768" x2="40.5711" y2="76.5768">
			<stop  offset="0.2204" style="stop-color:#58595B"/>
			<stop  offset="0.5858" style="stop-color:#231F20"/>
		</linearGradient>
		<path fill="url(#SVGID_16_)" d="M56.6,40.8c-0.7,1.6-2.1,3-4.4,4.3c-2.1,1.3-4.1,1.9-6,1.9c-0.7,0-1.3-0.2-1.8-0.7
			c-0.5-0.5-0.8-1.1-0.8-1.8c0-0.4,0.1-0.7,0.2-1.1l8.2-19.8c0.1-0.3,0.2-0.5,0.2-0.7c0-0.4-0.2-0.6-0.6-0.6c-0.9,0-1.9,0.5-3.1,1.6
			c-1.2,1-2,2.1-2.4,3l-8.4,20h-5.7l9.7-23.4c0.1-0.3,0.2-0.6,0.2-0.8c0-0.4-0.2-0.5-0.6-0.5c-0.8,0-1.8,0.6-3,1.7
			c-1.1,1-1.8,2-2.2,2.9l-8.4,20h-6l9.7-23.4c0-0.1,0-0.2,0-0.3c0-0.3-0.1-0.6-0.4-0.8c-0.3-0.2-0.6-0.4-0.9-0.4h-6.8
			c-0.6,0-0.9-0.4-0.9-1.2c0-0.8,0.3-1.2,1.1-1.2h9.5c2.6,0,4.1,0.5,4.6,1.5c1.9-1.1,3.7-1.7,5.5-1.7c0.9,0,1.8,0.1,2.7,0.3
			c1.3,0.3,2,0.7,2,1.4c1.1-1.1,2.8-1.7,5-1.7h0.4c1,0,2,0.3,2.9,0.7c1,0.6,1.6,1.3,1.6,2.3c0,0.3-0.1,0.7-0.2,1l-8,19.1
			c0,0.1,0,0.2,0,0.2c0,0.2,0.1,0.3,0.4,0.3c0.8,0,1.8-0.4,3-1.4c1.2-0.9,2-1.8,2.4-2.7L56.6,40.8z"/>
	</g>
</g>
</svg>
