<?xml version="1.0" encoding="UTF-8"?>
<!-- Generator: Adobe Illustrator 16.0.0, SVG Export Plug-In . SVG Version: 6.00 Build 0)  -->
<!DOCTYPE svg PUBLIC "-//W3C//DTD SVG 1.1//EN" "http://www.w3.org/Graphics/SVG/1.1/DTD/svg11.dtd">
<svg version="1.1" id="Layer_1" xmlns="http://www.w3.org/2000/svg" xmlns:xlink="http://www.w3.org/1999/xlink" x="0px" y="0px" width="256px" height="256px" viewBox="0 0 256 256" enable-background="new 0 0 256 256" xml:space="preserve">
<rect x="0" fill="#E05C5C" width="256" height="256"/>
<path opacity="0.6" fill-rule="evenodd" clip-rule="evenodd" fill="#B94352" d="M97.875,167.333L9.209,256l126.048-0.008  l25.744-25.742c0,0-14.813,11.263-31.793,12.084c-20.667,1-33.644-10.676-41.333-30.667  C79.542,190.001,97.875,167.333,97.875,167.333z"/>
<g>
	<path fill="#FFFFFF" d="M144.059,211.576c0,0-23.001,0-24.246,0c-1.242,0-1.969,0.207-1.969,1.037c0,0.828-0.414,2.175,1.762,2.175   c1.451,0,19.998,0,22.486,0c2.484,0,3.729,1.037,3.729,3.108c0,2.666-2.488,2.694-4.248,2.694c-1.141,0-22.277,0-25.281,0   c-3.006,0-3.834-1.14-3.834-4.456c0-3.315,0-26.731,0-26.731s-1.969,0-4.354,0c-2.383,0-3.334-1.174-3.314-2.799   c0.023-1.968,1.762-2.59,4.041-2.59s5.387,0,7.355,0s2.488,1.657,2.488,3.419s0,4.974,0,4.974h35.955L144.059,211.576z"/>
	<circle fill="#FFFFFF" cx="115.825" cy="227.379" r="4.455"/>
	<circle fill="#FFFFFF" cx="140.795" cy="227.379" r="4.455"/>
	<path fill="#FFFFFF" d="M127.999,163.533c20.38,0,36.958,16.577,36.958,36.955c0,20.379-16.578,36.957-36.958,36.957   c-20.377,0-36.955-16.578-36.955-36.957C91.043,180.11,107.622,163.533,127.999,163.533 M127.999,156.072   c-24.529,0-44.416,19.888-44.416,44.416c0,24.532,19.887,44.417,44.416,44.417c24.531,0,44.419-19.885,44.419-44.417   C172.418,175.96,152.529,156.072,127.999,156.072L127.999,156.072z"/>
</g>
<g>
	<path opacity="0.6" fill="#B94352" d="M25.391,26.495c0,0-1.625,0.203-3.141,2.047C20.531,30.261,0.016,50.776,0.016,50.776v62.333   c0,0,21.935-21.956,22.932-22.953c1.745-1.745,4.302-1.489,4.302-1.489l29.285,0.035L67.32,77.917c0,0,4.971-4.334,5.305-5.917   C69.75,69.625,25.391,26.495,25.391,26.495z"/>
	<path opacity="0.3" d="M71.607,70.802c0,3.354-2.44,6.068-5.45,6.068H24.864c-3.013,0-5.454-2.715-5.454-6.068V33.924   c0-3.349,2.441-6.066,5.454-6.066h41.293c3.01,0,5.45,2.717,5.45,6.066V70.802z"/>
	<path opacity="0.6" fill="#B94352" d="M25.391,88.828c0,0-1.625,0.203-3.141,2.047c-1.719,1.719-22.234,22.234-22.234,22.234   v94.445L67.32,140.25c0,0,4.971-4.334,5.305-5.917C69.75,131.958,25.391,88.828,25.391,88.828z"/>
	<path opacity="0.3" d="M71.607,133.135c0,3.354-2.44,6.068-5.45,6.068H24.864c-3.013,0-5.454-2.715-5.454-6.068V96.257   c0-3.349,2.441-6.066,5.454-6.066h41.293c3.01,0,5.45,2.717,5.45,6.066V133.135z"/>
	<path fill="#ACC943" d="M73.233,69.296c0,3.353-2.44,6.068-5.45,6.068H26.49c-3.013,0-5.454-2.715-5.454-6.068V32.418   c0-3.349,2.441-6.066,5.454-6.066h41.293c3.01,0,5.45,2.717,5.45,6.066V69.296z"/>
	<path fill-rule="evenodd" clip-rule="evenodd" fill="#FFFFFF" d="M68.771,41.59h-6.125L51.804,57.808   c-0.16,0.237-0.361,0.429-0.588,0.571c-0.341,0.284-0.779,0.456-1.258,0.456H31.91c-1.083,0-1.961-0.878-1.961-1.962   c0-1.084,0.878-1.962,1.961-1.962h17.111l1.568-2.345H28.605c-1.084,0-1.962-0.878-1.962-1.961s0.878-1.963,1.962-1.963h24.326   c0.091,0,0.18,0.007,0.268,0.02l1.662-2.484H26.775c-1.084,0-1.962-0.878-1.962-1.962c0-1.083,0.877-1.961,1.962-1.961h30.603   c0.034,0,0.068,0,0.104,0.002l2.401-3.591c0.176-0.262,0.403-0.467,0.66-0.614c0.326-0.242,0.73-0.385,1.167-0.385h7.062   c1.083,0,1.961,0.878,1.961,1.962S69.855,41.59,68.771,41.59z M36.624,60.41c1.88,0,3.405,1.525,3.405,3.406   c0,1.88-1.524,3.405-3.405,3.405s-3.405-1.524-3.405-3.405C33.219,61.935,34.744,60.41,36.624,60.41z M45.815,60.41   c1.88,0,3.405,1.525,3.405,3.406c0,1.88-1.524,3.405-3.405,3.405c-1.881,0-3.406-1.524-3.406-3.405   C42.409,61.935,43.934,60.41,45.815,60.41z"/>
	<path fill="#FFB820" d="M73.233,131.634c0,3.354-2.44,6.068-5.45,6.068H26.49c-3.013,0-5.454-2.715-5.454-6.068V94.756   c0-3.349,2.441-6.066,5.454-6.066h41.293c3.01,0,5.45,2.717,5.45,6.066V131.634z"/>
	<path fill-rule="evenodd" clip-rule="evenodd" fill="#FFFFFF" d="M63.999,111.181c0-0.963-0.399-1.836-1.038-2.462l-13.021-10.96   c-1.348-1.348-3.534-1.348-4.881,0l-13.021,10.96c-0.639,0.625-1.038,1.499-1.038,2.462v15.82c0,1.52,1.23,2.75,2.75,2.75h27.5   c1.52,0,2.75-1.23,2.75-2.75V111.181L63.999,111.181z M38.011,108.437h18.976c0.838,0,1.512,0.674,1.512,1.513v2.613   c-0.006,0.33-0.138,0.653-0.392,0.908l-4.235,4.27l6.298,6.291c0.522,0.522,0.522,1.368,0,1.891c-0.523,0.522-1.369,0.522-1.891,0   l-6.483-6.483h-8.608l-6.469,6.483c-0.522,0.522-1.368,0.522-1.891,0c-0.522-0.523-0.522-1.368,0-1.891l6.291-6.291l-4.229-4.27   c-0.275-0.275-0.406-0.632-0.392-0.997v-2.523C36.499,109.111,37.172,108.437,38.011,108.437z"/>
	<path opacity="0.3" fill-rule="evenodd" clip-rule="evenodd" d="M56.105,145.901c0.191-1.883,0.351-3.597,0.542-5.309   c0.528-4.739,1.047-9.484,1.613-14.22c0.281-2.337,1.159-4.447,2.909-6.066c2.405-2.228,5.24-2.366,8.131-1.265   c2.758,1.05,4.169,3.3,4.359,6.166c0.131,1.948-0.099,3.925-0.241,5.882c-0.14,1.904-0.375,3.803-0.581,5.811   c0.461-0.002,0.714,0,0.969,0c3.409,0,6.458,0.738,8.363,3.96c0.117,0.194,0.576,0.29,0.859,0.264   c2.09-0.189,4.077,0.106,5.894,1.197c1.337,0.803,2.253,1.966,2.869,3.396c0.094,0.216,0.445,0.468,0.661,0.454   c5.242-0.324,8.483,3.59,8.588,8.13c0.054,2.328-0.296,4.669-0.499,7.002c-0.35,3.972-0.762,7.924-2.008,11.756   c-2.26,6.928-6.068,12.859-11.192,17.981c-0.171,0.171-0.318,0.363-0.472,0.55c-0.647,0.784-1.467,1.045-2.488,1.049   c-8.328,0.032-16.38,0.308-24.752-0.549c-1.029-0.104-1.709-0.684-2.193-1.566c-4.489-8.199-8.231-18.866-10.859-27.834   c-0.757-2.575-1.651-5.133-2.747-7.58c-2.446-5.463,1.187-9.869,6.123-10.477C52.061,144.371,54.06,144.802,56.105,145.901z"/>
	<g>
		<path fill-rule="evenodd" clip-rule="evenodd" fill="#FFFFFF" d="M61.226,150.479c0,0,0.193-25.894,2.028-27.922    c1.836-2.029,7.633-3.672,8.504,0.868c0.869,4.543,0.772,23.094,0.772,23.094s-0.677-10.145,5.217-9.372    c5.895,0.772,5.413,8.211,5.413,8.211s2.801-7.05,6.568-4.539c3.77,2.513,3.77,8.502,3.77,8.502s0.675-7.44,5.12-4.541    c4.444,2.898,3.961,10.145,2.416,22.415c-1.545,12.271-7.344,20.098-13.817,19.906c-6.473-0.196-17.778-0.678-19.807-0.678    c-2.028,0-5.99-5.508-9.274-13.045c-3.286-7.534-6.185-16.522-7.538-18.936c-1.352-2.417,0.774-6.476,3.479-6.861    C56.781,147.194,61.226,150.479,61.226,150.479z"/>
		<path fill-rule="evenodd" clip-rule="evenodd" d="M59.339,145.55c0-1.893-0.015-3.612,0.002-5.334    c0.046-4.771,0.082-9.542,0.166-14.312c0.041-2.354,0.703-4.54,2.278-6.33c2.167-2.458,4.974-2.884,7.962-2.08    c2.849,0.764,4.481,2.86,4.961,5.692c0.325,1.923,0.3,3.914,0.354,5.876c0.055,1.908,0.013,3.82,0.013,5.836    c0.456-0.046,0.709-0.069,0.961-0.097c3.391-0.343,6.502,0.086,8.722,3.094c0.134,0.183,0.603,0.23,0.884,0.178    c2.059-0.4,4.065-0.308,5.984,0.595c1.41,0.658,2.44,1.728,3.199,3.087c0.113,0.204,0.487,0.422,0.701,0.387    c5.181-0.854,8.804,2.711,9.367,7.216c0.289,2.313,0.179,4.676,0.212,7.017c0.056,3.988,0.044,7.964-0.807,11.899    c-1.548,7.121-4.735,13.41-9.315,19.022c-0.151,0.188-0.277,0.394-0.413,0.597c-0.565,0.845-1.351,1.292-2.372,1.292    c-8.413,0-16.827-0.006-25.241-0.007c-1.036,0-1.771-0.508-2.34-1.338c-5.296-7.703-9.535-15.968-13.059-24.623    c-1.012-2.485-2.162-4.939-3.498-7.262c-2.987-5.188,0.18-9.939,5.03-11.044C55.16,144.439,57.193,144.664,59.339,145.55z     M64.745,149.435c-0.001,1.184,0.028,2.379-0.11,3.548c-0.146,1.233-1.095,2.087-2.222,2.234c-1.33,0.175-2.367-0.406-2.971-1.585    c-0.366-0.714-0.734-1.452-1.244-2.061c-1.225-1.46-3.252-1.803-4.819-0.912c-1.024,0.584-1.21,1.226-0.66,2.269    c0.628,1.188,1.318,2.351,1.87,3.575c1.932,4.291,3.794,8.613,5.724,12.906c2.105,4.683,4.796,9.022,7.708,13.237    c0.543,0.785,1.073,1.076,2.012,1.067c6.076-0.047,12.152-0.099,18.225,0.011c1.667,0.03,2.727-0.413,3.755-1.759    c4.003-5.231,6.638-11.055,7.261-17.603c0.423-4.438,0.304-8.933,0.311-13.4c0.001-0.854-0.42-1.771-0.843-2.552    c-0.377-0.695-1.167-1.005-1.961-0.813c-0.808,0.194-0.923,0.989-1.045,1.668c-0.115,0.659-0.125,1.339-0.177,2.012    c-0.111,1.46-1.321,2.519-2.845,2.487c-1.404-0.031-2.566-1.161-2.583-2.574c-0.009-0.858,0.035-1.726,0.136-2.576    c0.156-1.322,0.27-2.637-0.175-3.918c-0.378-1.087-1.58-1.578-3.053-1.295c-0.78,0.149-1.172,0.794-1.168,1.951    c0.004,1.107,0.048,2.212,0.024,3.316c-0.028,1.389-1.164,2.52-2.579,2.624c-1.298,0.097-2.739-0.943-2.818-2.264    c-0.126-2.145-0.041-4.3-0.111-6.448c-0.021-0.611-0.085-1.451-0.471-1.771c-0.957-0.786-2.206-0.884-3.356-0.425    c-0.971,0.39-1.168,1.353-1.157,2.306c0.02,1.617,0.107,3.231,0.126,4.85c0.026,1.816-1.351,3.135-3.059,2.969    c-1.406-0.136-2.409-1.235-2.479-2.912c-0.087-2.067-0.053-4.141-0.098-6.211c-0.081-3.718-0.171-7.438-0.279-11.156    c-0.059-1.937-0.104-3.876-0.274-5.807c-0.102-1.156-0.611-1.607-1.495-1.727c-1.038-0.14-1.926,0.247-2.33,1.189    c-0.268,0.628-0.449,1.342-0.455,2.02C65.021,130.244,64.756,145.931,64.745,149.435z"/>
	</g>
</g>
<g>
	<path opacity="0.2" d="M241.387,34.414c-2.44,0-4.417,1.916-4.551,4.324H122.199v127.203h119.046V43.557   c0.048,0.002,0.093,0.014,0.142,0.014c2.531,0,4.58-2.049,4.58-4.578S243.918,34.414,241.387,34.414z"/>
	<rect x="114.699" y="24.738" fill="#FFFFFF" width="119.046" height="133.209"/>
	<rect x="129.15" y="39.805" fill="#CCCCCC" width="90.143" height="3.721"/>
	<rect x="190.65" y="133.967" fill="#CCCCCC" width="28.643" height="10.232"/>
	<g>
		<path fill="#4D4D4D" d="M238.133,25.075c0,2.529-2.049,4.579-4.58,4.579c-2.527,0-4.576-2.05-4.576-4.579    c0-2.528,2.049-4.578,4.576-4.578C236.084,20.497,238.133,22.547,238.133,25.075z"/>
		<path fill="#FFFFFF" d="M234.244,25.075l1.416-1.416c0.19-0.191,0.19-0.5,0-0.69c-0.191-0.19-0.499-0.19-0.689,0l-1.418,1.416    l-1.416-1.416c-0.189-0.19-0.498-0.19-0.689,0c-0.189,0.19-0.189,0.499,0,0.69l1.416,1.416l-1.416,1.416    c-0.189,0.19-0.189,0.499,0,0.69c0.096,0.096,0.222,0.143,0.345,0.143c0.127,0,0.251-0.047,0.345-0.143l1.416-1.417l1.418,1.417    c0.096,0.096,0.219,0.143,0.344,0.143c0.126,0,0.251-0.047,0.346-0.143c0.19-0.191,0.19-0.5,0-0.69L234.244,25.075z"/>
	</g>
	<path fill="#CCCCCC" d="M129.287,51.952v13.702h90.143V51.952H129.287z M217.858,64.344h-87V53.341h87V64.344z"/>
	<path fill="#CCCCCC" d="M129.287,69.621v13.702h90.143V69.621H129.287z M217.858,82.013h-87V71.01h87V82.013z"/>
	<path fill="#CCCCCC" d="M129.287,87.289v40.722h90.143V87.289H129.287z M217.858,126.702h-87V88.678h87V126.702z"/>
</g>
<polygon opacity="0.3" points="64.436,120.563 114.699,24.738 114.699,157.947 "/>
</svg>