<?xml version="1.0" standalone="no"?>
<!DOCTYPE svg PUBLIC "-//W3C//DTD SVG 1.1//EN" "http://www.w3.org/Graphics/SVG/1.1/DTD/svg11.dtd" >
<svg xmlns="http://www.w3.org/2000/svg" xmlns:xlink="http://www.w3.org/1999/xlink" version="1.1">
<metadata></metadata>
<defs>
<font id="myriad_set_promedium" horiz-adv-x="1034" >
<font-face units-per-em="2048" ascent="1638" descent="-410" />
<missing-glyph horiz-adv-x="489" />
<glyph horiz-adv-x="0" />
<glyph horiz-adv-x="0" />
<glyph horiz-adv-x="0" />
<glyph unicode="&#xa;" horiz-adv-x="489" />
<glyph unicode=" "  horiz-adv-x="489" />
<glyph unicode="&#x09;" horiz-adv-x="489" />
<glyph unicode="&#xa0;" horiz-adv-x="489" />
<glyph unicode="!" horiz-adv-x="466" d="M115 102q0 55 32.5 92t85.5 37q55 0 87 -37t32 -92t-32.5 -88.5t-88.5 -33.5q-51 0 -83.5 35.5t-32.5 86.5zM135 1380h197l-29 -985h-139z" />
<glyph unicode="&#x22;" horiz-adv-x="688" d="M104 1415h175l-33 -489h-109zM408 1415h176l-33 -489h-109z" />
<glyph unicode="#" horiz-adv-x="1003" d="M74 401v121h184l39 297h-174v119h190l54 393h118l-51 -393h211l51 393h121l-51 -393h164v-119h-182l-39 -297h174v-119h-191l-53 -403h-123l53 403h-209l-51 -403h-123l54 401h-166zM379 522h209l39 297h-209z" />
<glyph unicode="$" d="M131 119l49 137q131 -88 289 -88q106 0 173 57.5t67 145.5q0 152 -228 243q-166 68 -241 142q-92 88 -93 213q0 127 83 217t223 112v205h127v-198q150 -4 260 -70l-49 -135q-123 70 -252 69q-109 0 -166 -57q-49 -47 -49 -119q0 -78 59 -129q51 -47 190 -106 q160 -68 236 -154t76 -219q0 -127 -84 -224.5t-234 -121.5v-211h-129v203q-184 4 -307 88z" />
<glyph unicode="%" horiz-adv-x="1601" d="M61 938q0 166 74 281q88 135 246 135q156 0 235 -127q66 -107 66 -271q0 -168 -70 -282q-86 -137 -243 -137q-152 0 -236 129q-72 111 -72 272zM205 938q0 -106 33 -186q45 -106 137 -107q170 0 170 303q0 297 -172 297q-92 0 -135 -115q-33 -82 -33 -192zM352 -23 l778 1379h115l-778 -1379h-115zM918 385q0 168 73 283q88 133 246 133q156 0 236 -125q65 -106 65 -270q0 -170 -70 -285q-86 -133 -243 -133q-152 0 -236 127q-72 111 -71 270zM1061 387q0 -106 33 -186q45 -109 137 -109q170 0 170 303q0 299 -172 299q-92 0 -135 -114 q-33 -84 -33 -193z" />
<glyph unicode="&#x26;" horiz-adv-x="1222" d="M63 365q0 252 265 403l2 6q-115 145 -115 289q0 137 88 233q98 106 258 107q129 0 215 -80t86 -213q0 -215 -297 -369l-2 -6q215 -252 332 -385q90 139 129 404h162q-55 -344 -195 -510l226 -244h-211q-27 27 -127 135q-168 -156 -396 -155q-193 0 -309 114 q-111 109 -111 271zM233 391q0 -121 79 -199.5t202 -78.5q166 0 277 125q-240 266 -381 434q-176 -113 -177 -281zM381 1079q0 -117 102 -248q226 130 226 271q0 76 -43 127t-117 51q-80 0 -124 -59.5t-44 -141.5z" />
<glyph unicode="'" horiz-adv-x="382" d="M104 1415h175l-33 -489h-109z" />
<glyph unicode="(" horiz-adv-x="577" d="M131 584q0 485 266 837h138q-254 -346 -254 -837q0 -470 254 -828h-138q-266 346 -266 828z" />
<glyph unicode=")" horiz-adv-x="577" d="M41 -244q254 354 254 834q0 477 -254 831h139q266 -346 266 -833q0 -479 -266 -832h-139z" />
<glyph unicode="*" horiz-adv-x="843" d="M61 977v137l297 -39v6l-188 248l123 72l127 -283h4l123 285l123 -70l-193 -258l307 39v-137l-307 37v-6l195 -246l-127 -72l-125 285h-4l-131 -287l-117 74l194 248v6z" />
<glyph unicode="+" horiz-adv-x="1220" d="M82 485v123h463v482h131v-482h463v-123h-463v-485h-131v485h-463z" />
<glyph unicode="," horiz-adv-x="421" d="M35 -252q82 227 121 488l198 20q-88 -315 -194 -494z" />
<glyph unicode="-" horiz-adv-x="624" d="M61 487v131h502v-131h-502z" />
<glyph unicode="." horiz-adv-x="421" d="M106 106q0 53 34 91.5t87 38.5q55 0 88 -37.5t33 -92.5q0 -57 -33.5 -91.5t-89.5 -34.5q-53 0 -86 36.5t-33 89.5z" />
<glyph unicode="/" horiz-adv-x="694" d="M0 -82l561 1485h139l-565 -1485h-135z" />
<glyph unicode="0" d="M72 662q0 166 32 296q45 172 144 277q115 119 280 119q238 0 351 -234q82 -174 82 -442q0 -283 -87 -463q-117 -236 -368 -235q-233 0 -346 237q-88 182 -88 445zM250 659q0 -193 45 -331q68 -211 219 -211q266 0 266 553q0 543 -264 542q-152 0 -221 -215 q-45 -145 -45 -338z" />
<glyph unicode="1" d="M207 1176l291 155h151v-1331h-172v1165h-4l-231 -125z" />
<glyph unicode="2" d="M90 0v109l139 139q272 270 365 393q121 164 121 305q0 260 -258 260q-139 0 -277 -110l-57 125q158 133 369 133q199 0 307 -121q94 -106 94 -264q0 -172 -123 -351q-94 -139 -326 -364l-104 -100v-4h586v-150h-836z" />
<glyph unicode="3" d="M84 68l49 135q129 -80 287 -80q154 0 233 86q66 70 64 172q0 131 -105 203q-92 63 -233 63h-98v135h96q113 0 194 54q98 63 99 172q0 88 -54 141q-61 59 -176 59q-139 0 -258 -86l-49 129q137 102 342 103q182 0 285 -99q92 -86 92 -219q0 -223 -242 -313v-4 q125 -25 205 -113q86 -94 86 -229q0 -168 -121 -279q-133 -119 -358 -118q-207 0 -338 88z" />
<glyph unicode="4" d="M31 365v116l583 850h193v-829h182v-137h-182v-365h-170v365h-606zM211 502h426v442q0 102 8 211l-8 2q-33 -72 -111 -203z" />
<glyph unicode="5" d="M84 57l45 138q123 -74 279 -74q129 0 220 81t89 212q-2 297 -377 297q-90 0 -178 -13l86 633h624v-149h-497l-51 -338q51 6 104 6q162 0 285 -74q184 -111 184 -344q0 -197 -137 -324.5t-350 -127.5q-201 0 -326 77z" />
<glyph unicode="6" d="M70 543q0 377 221 600q160 164 420 198q76 10 127 11l2 -146q-66 0 -135 -10q-197 -33 -320 -172q-109 -125 -133 -301h6q113 152 313 151q176 0 286 -117.5t110 -310.5t-115 -325q-125 -141 -322 -141q-209 0 -334.5 153.5t-125.5 409.5zM246 500q2 -164 67 -267 q78 -119 219 -118q119 0 189 96q65 88 65 223q0 143 -72.5 224t-195.5 81q-78 0 -147.5 -44t-106.5 -117q-18 -37 -18 -78z" />
<glyph unicode="7" d="M115 1182v149h825v-117l-569 -1214h-185l568 1182h-639z" />
<glyph unicode="8" d="M76 336q0 244 260 360l-2 6q-209 98 -209 299q0 162 125 261q115 92 280 92q158 0 265 -84q117 -90 116 -244q0 -207 -217 -311v-6q264 -106 264 -344q0 -178 -137 -287q-125 -98 -309 -98q-174 0 -299 88q-137 100 -137 268zM258 356q0 -111 75 -179t187 -68 q111 0 185.5 63t74.5 174q0 207 -286 291q-236 -70 -236 -281zM299 1014q0 -178 248 -248q196 70 196 244q0 98 -59 156.5t-160 58.5q-98 0 -161.5 -57.5t-63.5 -153.5z" />
<glyph unicode="9" d="M82 883q0 193 126 332t320 139q201 0 318 -152.5t117 -408.5q0 -399 -228 -623q-150 -150 -381 -178q-102 -12 -161 -10v145q250 -23 415 133q139 131 174 356h-6q-117 -141 -309 -141q-172 0 -278.5 117t-106.5 291zM260 893q0 -127 68.5 -205t181.5 -78q176 0 256 140 q16 26 16 65q0 168 -57 272q-70 129 -211 130q-119 0 -188 -99q-66 -90 -66 -225z" />
<glyph unicode=":" horiz-adv-x="421" d="M104 104q0 55 34 92t87 37q55 0 87 -37t32 -92t-32.5 -89.5t-88.5 -34.5q-53 0 -86 35.5t-33 88.5zM106 829q0 55 34 92t87 37q55 0 87 -37t32 -92t-32.5 -91t-88.5 -36q-53 0 -86 37t-33 90z" />
<glyph unicode=";" horiz-adv-x="421" d="M35 -252q82 227 121 488l198 20q-88 -315 -194 -494zM123 829q0 55 33.5 92t87.5 37q53 0 85.5 -37t32.5 -92t-33.5 -91t-88.5 -36q-51 0 -84 37t-33 90z" />
<glyph unicode="&#x3c;" horiz-adv-x="1220" d="M135 489v111l950 490v-142l-800 -401v-4l800 -402v-141z" />
<glyph unicode="=" horiz-adv-x="1220" d="M82 289v123h1057v-123h-1057zM82 690v123h1057v-123h-1057z" />
<glyph unicode="&#x3e;" horiz-adv-x="1220" d="M135 0v141l807 402v4l-807 401v142l950 -488v-115z" />
<glyph unicode="?" horiz-adv-x="817" d="M102 1325q113 80 289 80q164 0 256 -92q82 -82 82 -209q0 -94 -51 -186q-35 -61 -125 -170q-121 -145 -113 -306l2 -51h-157l-6 51q-18 182 124 356.5t142 282.5q0 176 -193 176q-119 0 -200 -61zM240 104q0 53 33.5 90t86.5 37t86 -36t33 -91t-33.5 -89.5t-89.5 -34.5 q-51 0 -83.5 35.5t-32.5 88.5z" />
<glyph unicode="@" horiz-adv-x="1488" d="M86 614q0 328 203 553q211 236 538 236q262 0 423 -165t161 -419q0 -227 -108 -364q-100 -131 -252 -131q-66 0 -107 43q-47 47 -43 135h-6q-106 -178 -287 -178q-90 0 -153.5 69.5t-63.5 186.5q0 195 137.5 341t345.5 146q125 0 216 -41l-72 -375q-12 -68 -12 -114 q0 -113 73 -115q84 -2 148 100q72 111 71 281q0 227 -129 367.5t-358 140.5q-256 0 -428 -187q-180 -195 -180 -499q0 -252 144.5 -402.5t373.5 -150.5q176 0 305 73l33 -88q-154 -80 -361 -80q-258 0 -430 168q-182 180 -182 469zM526 586q0 -154 131 -154q82 0 158 92 q70 84 88 185l45 235q-43 16 -98 17q-133 0 -228.5 -112t-95.5 -263z" />
<glyph unicode="A" horiz-adv-x="1228" d="M51 0l459 1380h213l459 -1380h-189l-143 432h-477l-140 -432h-182zM408 571h407l-133 394q-23 72 -70 256h-4q-20 -84 -67 -254z" />
<glyph unicode="B" horiz-adv-x="1093" d="M154 4v1358q133 29 319 29q248 0 373 -101q115 -90 115 -243q0 -100 -62.5 -182.5t-171.5 -119.5v-6q117 -29 193 -108q92 -97 92 -238q0 -166 -117 -276q-137 -127 -469 -127q-141 0 -272 14zM330 135q45 -8 145 -8q154 0 244 59q106 70 106 209q0 133 -104 205 q-94 63 -248 64h-143v-529zM330 797h157q133 0 213 65.5t80 167.5q0 225 -297 225q-100 0 -153 -14v-444z" />
<glyph unicode="C" horiz-adv-x="1159" d="M74 678q0 328 195.5 525.5t508.5 197.5q207 -1 318 -60l-43 -143q-115 55 -269 55q-240 0 -378 -147q-145 -152 -146 -422q0 -258 137.5 -406.5t378.5 -148.5q168 0 283 55l35 -141q-127 -61 -355 -61q-295 0 -475 176q-190 188 -190 520z" />
<glyph unicode="D" horiz-adv-x="1333" d="M154 4v1358q174 29 366 29q362 0 545 -166q195 -180 195 -502q0 -344 -197 -538.5t-596 -194.5q-184 0 -313 14zM330 139q49 -8 172 -8q276 0 423.5 151.5t147.5 434.5q0 254 -133 391q-139 141 -410 141q-115 0 -200 -16v-1094z" />
<glyph unicode="E" horiz-adv-x="987" d="M154 0v1380h731v-147h-555v-438h524v-148h-524v-500h585v-147h-761z" />
<glyph unicode="F" horiz-adv-x="976" d="M154 0v1380h729v-147h-553v-461h510v-147h-510v-625h-176z" />
<glyph unicode="G" horiz-adv-x="1294" d="M74 680q0 317 199.5 516t531.5 199q207 0 336 -62l-45 -145q-125 57 -295 57q-246 0 -393.5 -147.5t-147.5 -407.5q0 -262 140.5 -409.5t377.5 -147.5q158 0 230 35v414h-275v143h447v-666q-192 -71 -406 -71h-6q-319 0 -504 178q-190 184 -190 514z" />
<glyph unicode="H" horiz-adv-x="1310" d="M154 0v1380h176v-579h649v579h178v-1380h-178v647h-649v-647h-176z" />
<glyph unicode="I" horiz-adv-x="485" d="M154 0v1380h176v-1380h-176z" />
<glyph unicode="J" horiz-adv-x="743" d="M8 8l25 146q68 -25 147 -25q125 0 180 68q66 80 66 270v913h178v-927q0 -473 -411 -473q-109 0 -185 28z" />
<glyph unicode="K" horiz-adv-x="1091" d="M154 0v1380h176v-665h6q53 82 106 149l412 516h217l-487 -587l526 -793h-209l-442 676l-129 -150v-526h-176z" />
<glyph unicode="L" horiz-adv-x="948" d="M154 0v1380h176v-1230h577v-150h-753z" />
<glyph unicode="M" horiz-adv-x="1617" d="M117 0l96 1380h223l230 -665q80 -229 137 -465h6q57 229 143 465l240 665h225l84 -1380h-172l-33 606q-22 375 -22 552v40h-6q-70 -248 -168 -522l-240 -668h-133l-219 656q-100 297 -156 534h-4q-8 -299 -26 -606l-37 -592h-168z" />
<glyph unicode="N" horiz-adv-x="1320" d="M154 0v1380h192l430 -694q141 -229 242 -450h4q-20 227 -21 571v573h166v-1380h-178l-426 696q-164 268 -252 463l-6 -2q14 -217 14 -573v-584h-165z" />
<glyph unicode="O" horiz-adv-x="1376" d="M231 1182q172 221 467 221q287 0 453 -211q152 -192 152 -487q0 -309 -154 -508q-170 -217 -471 -217q-285 0 -451 210q-153 194 -153 486q0 305 157 506zM258 684q0 -219 102 -377q119 -184 326 -184q213 0 330 188q98 160 98 385q0 219 -100 377q-119 184 -326 184 q-213 0 -330 -188q-100 -158 -100 -385z" />
<glyph unicode="P" horiz-adv-x="1071" d="M154 0v1364q152 27 335 27q254 0 381 -113q121 -109 121 -291t-106 -293q-142 -151 -412 -151h-4q-92 0 -139 12v-555h-176zM330 698q51 -14 141 -14q162 0 252 77t90 218q0 131 -86 201.5t-233 70.5q-100 0 -164 -14v-539z" />
<glyph unicode="Q" horiz-adv-x="1376" d="M74 678q0 328 175 526.5t451 198.5q272 0 437.5 -194.5t165.5 -503.5q0 -258 -107 -435q-100 -164 -276 -227v-8q215 -53 395 -86l-53 -148q-246 63 -514 158q-55 20 -82 21q-254 10 -416 184q-176 190 -176 514zM260 682q0 -219 102 -377q119 -182 326 -182 q213 0 330 188q98 160 98 385q0 219 -100 377q-115 184 -322 184q-215 0 -334 -188q-100 -160 -100 -387z" />
<glyph unicode="R" horiz-adv-x="1085" d="M154 0v1362q143 29 333 29q270 0 396 -113q106 -96 106 -262q0 -131 -74 -225q-70 -86 -184 -127v-7q150 -51 203 -280q71 -316 104 -377h-184q-31 57 -90 332q-31 143 -92.5 204.5t-179.5 61.5h-162v-598h-176zM330 733h174q141 0 224 71.5t83 190.5q0 258 -311 258 q-113 0 -170 -16v-504z" />
<glyph unicode="S" horiz-adv-x="991" d="M84 68l45 147q139 -88 311 -88q133 0 209 64.5t76 170.5q0 96 -59.5 160t-196.5 115q-358 135 -358 391q0 162 122.5 267.5t319.5 105.5q182 0 297 -66l-49 -145q-104 65 -250 65h-4q-127 0 -199 -67q-57 -57 -57 -139q0 -92 63 -154q59 -53 205 -113q178 -72 262 -166 t84 -239q0 -170 -119 -279q-128 -116 -354 -116h-4q-215 0 -344 86z" />
<glyph unicode="T" horiz-adv-x="997" d="M0 1231v149h999v-149h-411v-1231h-178v1231h-410z" />
<glyph unicode="U" horiz-adv-x="1300" d="M152 561v819h178v-825q0 -219 90 -330q80 -102 223 -102q328 0 328 432v825h176v-811q0 -301 -146 -452q-131 -137 -364 -137q-223 0 -346 131q-139 147 -139 450z" />
<glyph unicode="V" horiz-adv-x="1124" d="M8 1380h193l209 -678q104 -340 145 -516h4q43 184 154 514l227 680h188l-481 -1380h-194z" />
<glyph unicode="W" horiz-adv-x="1705" d="M31 1380h188l160 -696q61 -262 100 -479h4q25 150 111 481l182 694h180l166 -696q70 -293 97 -475h4q37 205 106 477l178 694h181l-383 -1380h-185l-170 715q-68 283 -90 452h-4q-25 -158 -104 -452l-191 -715h-186z" />
<glyph unicode="X" horiz-adv-x="1144" d="M49 0l414 700l-397 680h202l181 -323q84 -152 124 -234h5q43 92 122 234l183 323h202l-411 -671l422 -709h-205l-172 307q-57 94 -156 271h-4q-4 -8 -143 -273l-164 -305h-203z" />
<glyph unicode="Y" horiz-adv-x="1087" d="M27 1380h200l189 -379q86 -172 135 -286h4q45 111 137 289l193 376h200l-452 -792v-588h-178v586z" />
<glyph unicode="Z" horiz-adv-x="1105" d="M59 0v104l748 1129h-684v147h911v-108l-741 -1125h749v-147h-983z" />
<glyph unicode="[" horiz-adv-x="577" d="M166 -229v1634h371v-113h-232v-1409h232v-112h-371z" />
<glyph unicode="\" horiz-adv-x="698" d="M4 1403h137l559 -1485h-139z" />
<glyph unicode="]" horiz-adv-x="577" d="M41 -117h231v1409h-231v113h371v-1634h-371v112z" />
<glyph unicode="^" horiz-adv-x="1220" d="M125 387l422 944h127l422 -944h-142l-342 795h-4l-342 -795h-141z" />
<glyph unicode="_" horiz-adv-x="1024" d="M0 -154h1024v-102h-1024v102z" />
<glyph unicode="`" horiz-adv-x="614" d="M47 1405h197l178 -293h-127z" />
<glyph unicode="a" horiz-adv-x="970" d="M224 538q148 94 420 93h11v20q0 229 -221 230q-143 0 -252 -72l-41 119q131 84 322 84q369 0 368 -402v-374q1 -146 17 -236h-162l-16 123h-4q-102 -143 -297 -143q-139 0 -222 86q-75 79 -75 193q0 183 152 279zM297 155q47 -44 119 -44q88 0 153 51q57 45 80 112 q8 27 8 58v174h-27q-380 0 -380 -222q0 -85 47 -129z" />
<glyph unicode="b" horiz-adv-x="1142" d="M139 0q8 119 8 254v1198h177v-618h4q100 178 329 178q180 0 294 -139.5t114 -364.5q0 -250 -137 -397q-121 -131 -299 -131q-217 0 -322 180h-6l-8 -160h-154zM324 393q0 -113 78.5 -192.5t191.5 -79.5q137 0 215 104.5t78 276.5q0 158 -74 260q-79 108 -213 108h-2 q-90 0 -164 -59t-100 -158q-10 -39 -10 -75v-185z" />
<glyph unicode="c" horiz-adv-x="897" d="M78 485q0 231 143.5 379t378.5 148q148 0 242 -51l-39 -138q-86 47 -203 47q-162 0 -254 -112q-88 -102 -88 -264q0 -168 94 -269.5t244 -101.5q106 0 213 47l29 -135q-113 -53 -275 -53q-221 0 -353 137t-132 366z" />
<glyph unicode="d" horiz-adv-x="1132" d="M78 481q0 242 129 391q123 139 305 140q209 0 291 -148h4v588h178v-1198q0 -135 8 -254h-159l-9 168h-4q-96 -188 -327 -188q-180 0 -298 139t-118 362zM256 492q0 -160 74 -261q77 -110 211 -110h2q117 0 192 90q72 84 72 201v178q0 45 -6 76q-20 88 -89 147t-165 59 q-133 0 -212 -107.5t-79 -272.5z" />
<glyph unicode="e" horiz-adv-x="1007" d="M78 481q0 231 124 382t333 151q211 0 317 -162q82 -125 82 -299q0 -53 -6 -88h-680q4 -174 102 -264q86 -80 232 -80q147 0 266 49l31 -127q-133 -59 -324 -59q-221 0 -349 135t-128 362zM250 594h512v9q0 107 -47 181q-63 100 -195 101q-123 0 -196 -99 q-59 -80 -74 -192z" />
<glyph unicode="f" horiz-adv-x="589" d="M29 856v135h137v47q0 233 113 344q94 92 237 93q88 0 154 -29l-25 -137q-51 20 -115 20q-188 0 -188 -285v-53h236v-135h-234v-856h-178v856h-137z" />
<glyph unicode="g" horiz-adv-x="1124" d="M78 487q0 242 135 390q125 135 303 135q211 0 299 -168h4l8 147h158q-8 -121 -8 -274v-574q0 -322 -139 -450q-127 -117 -355 -117q-203 0 -321 78l43 139q125 -78 284 -78q311 0 312 342v111h-4q-94 -164 -305 -164q-180 0 -297 138.5t-117 344.5zM256 498 q0 -156 74 -252q78 -106 213 -107q82 0 148.5 49.5t94.5 135.5q13 41 13 94v186q0 49 -8 80q-59 188 -246 188q-129 0 -209 -102t-80 -272z" />
<glyph unicode="h" horiz-adv-x="1116" d="M147 0v1452h179v-612h4q47 80 130 126t177 46q129 0 219 -82q119 -111 119 -336v-594h-178v575q0 289 -224 289q-82 0 -146.5 -50t-90.5 -128q-10 -33 -10 -84v-602h-179z" />
<glyph unicode="i" horiz-adv-x="473" d="M121 1288q0 49 32.5 82t82.5 33q51 0 82.5 -32t31.5 -83t-32.5 -82.5t-84.5 -31.5q-49 0 -80.5 32.5t-31.5 81.5zM147 0v991h179v-991h-179z" />
<glyph unicode="j" horiz-adv-x="491" d="M-88 -289q131 10 190 76q68 78 68 367v837h178v-905q0 -285 -119 -403q-106 -111 -299 -113zM143 1288q0 49 34 82t83 33t81 -33t32 -82q0 -51 -33 -82.5t-84 -31.5q-49 0 -81 32.5t-32 81.5z" />
<glyph unicode="k" horiz-adv-x="944" d="M147 0v1452h177v-915h4q43 61 84 112l286 342h213l-374 -409l426 -582h-218l-331 475l-90 -102v-373h-177z" />
<glyph unicode="l" horiz-adv-x="473" d="M147 0v1452h179v-1452h-179z" />
<glyph unicode="m" horiz-adv-x="1679" d="M139 991h156l8 -157h6q104 178 305 178q98 0 171 -53.5t104 -141.5h4q45 78 113 127q90 68 211 68q125 0 210 -84q111 -111 111 -340v-588h-174v563q0 303 -211 303q-96 0 -159.5 -75.5t-63.5 -176.5v-614h-174v598q0 121 -52.5 194.5t-148.5 73.5q-100 0 -170 -86 q-63 -78 -63 -180v-600h-175v723q0 123 -8 268z" />
<glyph unicode="n" horiz-adv-x="1116" d="M139 991h158l10 -160h4q41 76 119 125q90 55 203 56q131 0 221 -82q121 -111 121 -334v-596h-178v575q0 291 -224 291q-106 0 -176.5 -80.5t-70.5 -187.5v-598h-179v723q0 123 -8 268z" />
<glyph unicode="o" horiz-adv-x="1101" d="M78 487q0 227 125 373q133 152 356 152q215 0 344 -148q121 -141 121 -360q0 -227 -125 -373q-132 -151 -353 -151h-3q-215 0 -344 147q-121 143 -121 360zM256 494q0 -147 72 -256q80 -125 221 -125q139 0 221 127q72 111 72 258q0 150 -70 256q-80 125 -221 125 q-145 0 -225 -125q-70 -106 -70 -260z" />
<glyph unicode="p" horiz-adv-x="1142" d="M139 991h160l8 -166h4q113 186 342 187q180 0 296 -139.5t116 -362.5q0 -254 -135 -399q-121 -131 -305 -131q-205 0 -297 151h-4v-534h-177v1073q0 160 -8 321zM324 401q0 -119 75.5 -200.5t194.5 -81.5q137 0 214 105.5t77 277.5q0 156 -72 258q-79 110 -211 110h-2 q-92 0 -166 -61t-98 -158q-12 -47 -12 -73v-177z" />
<glyph unicode="q" horiz-adv-x="1130" d="M78 479q0 258 141 406q123 127 297 127q211 0 297 -168h4l6 147h170q-8 -150 -8 -274v-1120h-178v553h-4q-94 -170 -316 -170q-174 0 -291.5 138t-117.5 361zM258 489q0 -158 70 -258q75 -110 213 -110h2q86 0 153.5 51t96.5 143q14 43 14 86v191q0 115 -71.5 196.5 t-186.5 81.5q-135 0 -213 -105.5t-78 -275.5z" />
<glyph unicode="r" horiz-adv-x="659" d="M139 991h158l8 -192h6q33 98 108 155.5t163 57.5q29 0 49 -4v-168q-27 4 -62 4q-121 0 -186 -101q-59 -88 -59 -213v-530h-177v686q0 160 -8 305z" />
<glyph unicode="s" horiz-adv-x="796" d="M78 47l43 135q109 -69 230 -69h3q190 0 191 147q0 63 -41 104.5t-139 77.5q-260 98 -261 281q0 123 93.5 206t244.5 83q141 0 240 -60l-45 -131q-90 57 -199 58q-76 0 -119 -38t-43 -98q0 -57 46 -94q37 -35 139 -74q256 -100 256 -299q0 -133 -98.5 -213.5t-268.5 -80.5 q-158 0 -272 65z" />
<glyph unicode="t" horiz-adv-x="667" d="M35 856v135h151v183l176 53v-236h254v-135h-254v-539q0 -190 134 -190q59 0 102 12l8 -135q-58 -22 -149 -22h-8q-125 0 -194 74.5t-69 254.5v545h-151z" />
<glyph unicode="u" horiz-adv-x="1105" d="M141 408v583h178v-551q0 -315 216 -315q82 0 149 53q57 45 82 111q16 41 16 92v610h179v-721q0 -133 8 -270h-158l-10 158h-6q-102 -178 -320 -178q-139 0 -225 86q-109 111 -109 342z" />
<glyph unicode="v" horiz-adv-x="966" d="M27 991h190l191 -557q51 -150 77 -254h7q23 88 79 254l189 557h186l-381 -991h-170z" />
<glyph unicode="w" horiz-adv-x="1484" d="M37 991h182l129 -502q45 -172 74 -317h4q27 123 88 315l158 504h149l152 -495q51 -168 86 -324h4q25 139 76 324l139 495h176l-315 -991h-162l-148 473q-57 180 -86 326h-4q-33 -158 -90 -328l-155 -471h-162z" />
<glyph unicode="x" horiz-adv-x="931" d="M16 0l344 506l-327 485h198l138 -213q43 -63 98 -162h6q41 76 96 164l136 211h194l-332 -479l340 -512h-202l-142 223q-43 66 -104 172h-4q-29 -55 -103 -172l-139 -223h-197z" />
<glyph unicode="y" horiz-adv-x="948" d="M20 991h193l211 -585q31 -82 61 -201h7q18 66 61 205l190 581h189l-262 -702q-100 -264 -168 -393q-78 -147 -166 -228q-106 -96 -217 -117l-47 150q84 27 157 90q92 78 146 199q14 29 14 41q0 14 -12 47z" />
<glyph unicode="z" horiz-adv-x="860" d="M37 0v104l438 584q37 47 127 156v4h-526v143h741v-112l-434 -578q-59 -80 -125 -154v-4h567v-143h-788z" />
<glyph unicode="{" horiz-adv-x="577" d="M57 537v104q164 0 164 152q0 59 -15.5 172.5t-15.5 171.5q0 268 295 268h41v-113h-37q-160 0 -159 -176q0 -51 14 -151.5t14 -149.5q2 -184 -147 -223v-4q150 -39 147 -226q0 -49 -14 -150t-14 -153q0 -174 159 -174h37v-112h-43q-293 0 -293 276q0 57 15.5 168t15.5 168 q0 152 -164 152z" />
<glyph unicode="|" horiz-adv-x="483" d="M174 -512v2048h135v-2048h-135z" />
<glyph unicode="}" horiz-adv-x="577" d="M51 -115h37q160 0 160 174q0 51 -14.5 152.5t-16.5 150.5q0 186 148 226v4q-147 39 -148 223q2 49 16.5 149.5t14.5 151.5q0 176 -160 176h-37v113h41q295 0 295 -268q0 -57 -15.5 -172t-15.5 -172q0 -152 164 -152v-104q-164 0 -164 -152q0 -57 15.5 -168t15.5 -168 q0 -276 -295 -276h-41v112z" />
<glyph unicode="~" horiz-adv-x="1220" d="M102 432q-4 147 65 227t179 80q94 0 289 -92q180 -86 252 -86q109 0 110 172h121q8 -160 -65 -239q-61 -70 -168 -70q-104 0 -293 90t-246 90q-117 0 -121 -172h-123z" />
<glyph unicode="&#xa1;" horiz-adv-x="466" d="M115 874q0 53 33.5 90t89.5 37q53 0 84.5 -37t31.5 -90q0 -55 -33.5 -90.5t-87.5 -35.5q-53 0 -85.5 35.5t-32.5 90.5zM137 -395l27 975h139l29 -975h-195z" />
<glyph unicode="&#xa2;" d="M135 668q0 197 111 336q109 137 293 167v205h127v-200q121 0 217 -50l-39 -137q-84 51 -209 51q-145 0 -234 -106q-86 -109 -86 -260q0 -84 23.5 -149.5t64.5 -112.5t99.5 -72t126.5 -25q119 0 227 50l31 -129q-88 -51 -221 -58v-205h-127v205q-176 20 -287 141 q-117 125 -117 349z" />
<glyph unicode="&#xa3;" d="M111 0v102q102 51 166.5 148.5t64.5 210.5q0 76 -10 143h-209v129h188q-23 135 -22 221q0 180 108.5 290t278.5 110q137 0 219 -51l-39 -136q-72 41 -180 41q-219 0 -219 -252q0 -98 24 -223h289v-129h-272q12 -150 -9 -231q-33 -127 -141 -221v-5h600v-147h-837z" />
<glyph unicode="&#xa4;" d="M45 494l23 100h129q-2 14 -2 28.5v30.5q0 57 6 111h-156l23 100h145q43 229 173 359.5t329 130.5q162 0 246 -66l-35 -137q-100 63 -197 63q-281 0 -342 -350h473l-22 -100h-461q-2 -27 -3 -52.5t-1 -54.5v-63h424l-23 -100h-393q49 -377 324 -377q109 0 206 67l33 -131 q-96 -74 -254 -73q-199 0 -325.5 133t-159.5 381h-160z" />
<glyph unicode="&#xa5;" d="M33 1331h190l207 -420q18 -35 38.5 -82t43.5 -104h6q39 117 80 190l217 416h184l-358 -620h262v-101h-315v-149h315v-101h-315v-360h-168v360h-314v101h314v149h-314v101h265z" />
<glyph unicode="&#xa6;" horiz-adv-x="483" d="M174 -358v716h135v-716h-135zM174 666v716h135v-716h-135z" />
<glyph unicode="&#xa7;" horiz-adv-x="1046" d="M117 694q0 141 149 242q-76 57 -76 170q0 133 111 213q104 78 264 78q162 0 279 -66l-43 -117q-102 63 -242 64q-90 0 -150.5 -41t-60.5 -111q0 -72 70 -118q49 -33 182 -78q162 -53 236 -115q96 -80 96 -207q0 -147 -133 -248q78 -70 78 -182q0 -150 -121 -231 q-106 -72 -264 -72q-201 0 -318 84l47 115q115 -80 268 -80q100 0 164 43t64 121q0 72 -54.5 119t-193.5 96q-178 61 -254 123q-98 78 -98 198zM262 719q0 -115 213 -193q59 -23 119 -45q68 -27 113 -55q77 58 77 158q0 123 -180 190q-86 29 -250 105q-92 -63 -92 -160z" />
<glyph unicode="&#xa8;" horiz-adv-x="614" d="M23 1241q0 43 29.5 72.5t70.5 29.5q43 0 70.5 -29.5t27.5 -72.5t-28.5 -72.5t-71.5 -29.5t-70.5 30.5t-27.5 71.5zM393 1241q0 43 29 72.5t72 29.5t70.5 -29.5t27.5 -72.5t-28.5 -72.5t-71.5 -29.5t-71 30.5t-28 71.5z" />
<glyph unicode="&#xa9;" horiz-adv-x="1386" d="M74 696q0 262 181 446.5t443 184.5q260 0 437.5 -185.5t177.5 -445.5q0 -262 -177.5 -448.5t-439.5 -186.5t-442 185.5t-180 449.5zM178 690q0 -225 148.5 -385t371.5 -160t371 166q143 158 143 385q0 225 -146 386t-370 161q-225 0 -371.5 -162.5t-146.5 -390.5z M354 684q0 170 119 279q113 102 272 102q164 0 226 -55l-25 -80q-84 47 -201 47q-137 0 -210.5 -79t-73.5 -208q0 -125 75.5 -207t211.5 -82q129 0 208 54l25 -78q-94 -63 -252 -64q-172 0 -273.5 105.5t-101.5 265.5z" />
<glyph unicode="&#xaa;" horiz-adv-x="698" d="M68 729q0 111 99 172.5t279 61.5h25v20q0 59 -43 93t-106 34q-100 0 -172 -53l-33 86q94 68 231 67q256 0 256 -284v-224q0 -47 3 -85.5t7 -71.5h-120l-11 84h-4q-76 -94 -203 -94q-98 0 -153 54t-55 140zM201 737q0 -49 33.5 -77.5t82.5 -28.5q88 0 138 74q20 33 20 55 v112h-31q-244 0 -243 -135z" />
<glyph unicode="&#xab;" horiz-adv-x="849" d="M57 516l269 375h143l-268 -375l270 -375h-145zM391 516l266 375h146l-271 -375l271 -375h-146z" />
<glyph unicode="&#xac;" horiz-adv-x="1220" d="M82 694v123h1057v-569h-129v446h-928z" />
<glyph unicode="&#xad;" horiz-adv-x="624" d="M61 487v131h502v-131h-502z" />
<glyph unicode="&#xae;" horiz-adv-x="1044" d="M66 940q0 190 134 324.5t326 134.5q190 0 321.5 -134.5t131.5 -324.5q0 -195 -131 -329t-324 -134t-325.5 135.5t-132.5 327.5zM156 938q0 -160 104 -272q109 -119 266 -119q158 0 265 119q104 112 104 272t-106.5 274.5t-264.5 114.5t-263 -115.5t-105 -273.5zM356 672 v512q92 14 146 14q109 0 158 -38t49 -109q0 -94 -101 -123v-4q70 -14 86 -125q15 -94 33 -127h-86q-18 23 -37 131q-14 90 -110 90h-56v-221h-82zM438 954h58q127 0 127 88q0 90 -125 91q-35 0 -60 -3v-176z" />
<glyph unicode="&#xaf;" horiz-adv-x="614" d="M80 1196v109h457v-109h-457z" />
<glyph unicode="&#xb0;" horiz-adv-x="645" d="M59 1128q0 117 79 197t194 80t191.5 -75.5t76.5 -190.5t-80 -194t-192 -79q-115 0 -192 75t-77 187zM172 1130q0 -70 45 -119.5t113 -49.5q72 0 117 51t45 123q0 76 -45.5 125t-118.5 49q-70 0 -113 -53.5t-43 -125.5z" />
<glyph unicode="&#xb1;" horiz-adv-x="1220" d="M82 0v123h1057v-123h-1057zM82 649v123h463v397h131v-397h463v-123h-463v-409h-131v409h-463z" />
<glyph unicode="&#xb2;" horiz-adv-x="708" d="M88 545v73l127 119q70 66 116 115t72 84q66 88 66 160q0 143 -152 143q-88 0 -170 -63l-43 92q100 86 248 86q133 0 205 -74q63 -63 64 -156q0 -102 -80 -209q-23 -33 -70 -81t-119 -113l-63 -59v-5h344v-112h-545z" />
<glyph unicode="&#xb3;" horiz-adv-x="688" d="M72 590l37 102q82 -53 186 -53q88 0 135 45q43 39 43 94q0 35 -18.5 63.5t-48.5 47.5q-59 35 -148 35h-53v92h53q68 0 121 31q66 37 65 100q0 102 -129 102q-94 0 -170 -55l-34 96q96 63 231 64q123 0 188 -60q59 -53 60 -133q0 -129 -156 -184v-4q86 -12 137.5 -66.5 t51.5 -132.5q0 -100 -82 -168q-90 -72 -238 -71q-150 0 -231 55z" />
<glyph unicode="&#xb4;" horiz-adv-x="614" d="M209 1112l178 293h195l-248 -293h-125z" />
<glyph unicode="&#xb5;" horiz-adv-x="1105" d="M141 -403v1394h178v-563q0 -301 220 -301q98 0 170 74q74 74 73 157v633h179v-721q0 -66 2 -133t6 -137h-158l-10 160h-6q-96 -176 -291 -176q-139 0 -201 104h-6v-491h-156z" />
<glyph unicode="&#xb6;" horiz-adv-x="1032" d="M68 930q-2 190 112 309q141 145 445 145q156 0 237 -16v-1466h-127v1360h-143v-1360h-127v641h-14q-137 0 -248 94q-131 111 -135 293z" />
<glyph unicode="&#xb7;" horiz-adv-x="421" d="M90 559q0 55 34 92t87 37q55 0 88 -37t33 -92t-34 -91t-89 -36q-53 0 -86 37t-33 90z" />
<glyph unicode="&#xb8;" horiz-adv-x="614" d="M115 -373l30 88q51 -31 111 -30q47 0 66.5 16t19.5 49q0 70 -158 86l95 170h110l-65 -106q57 -8 99 -47.5t42 -94.5q0 -166 -211 -166q-80 0 -139 35z" />
<glyph unicode="&#xb9;" horiz-adv-x="649" d="M123 1253l190 90h125v-798h-141v674h-4l-148 -72z" />
<glyph unicode="&#xba;" horiz-adv-x="720" d="M39 866q0 145 90 246q88 98 236 98q74 0 132 -24.5t99 -69.5t63.5 -105t22.5 -134q0 -145 -90 -246q-90 -96 -234 -96q-143 0 -231 94t-88 237zM178 868q0 -86 47 -155q53 -78 137 -78q86 0 140 78q45 63 45 159t-45 160q-51 76 -142 76q-86 0 -139 -78q-43 -68 -43 -162 z" />
<glyph unicode="&#xbb;" horiz-adv-x="849" d="M47 141l270 375l-270 375h143l269 -375l-269 -375h-143zM379 141l270 375l-270 375h143l269 -375l-269 -375h-143z" />
<glyph unicode="&#xbc;" horiz-adv-x="1536" d="M86 1253l193 90h124v-798h-143v674h-2l-147 -72zM279 -20l772 1374h114l-772 -1374h-114zM805 211v80l389 518h147v-498h121v-100h-121v-211h-135v211h-401zM950 311h256v240q0 29 2 60.5t6 68.5h-6q-10 -20 -27.5 -49t-39.5 -64l-191 -254v-2z" />
<glyph unicode="&#xbd;" horiz-adv-x="1536" d="M57 1253l191 90h125v-798h-142v674h-4l-147 -72zM238 -20l772 1374h114l-772 -1374h-114zM889 0v76l127 117q70 66 116 114.5t72 83.5q68 86 68 162q0 141 -154 141q-86 0 -170 -63l-41 94q100 84 246 84q133 0 207 -74q61 -61 61 -155q0 -102 -78 -209 q-23 -35 -71.5 -81t-118.5 -114l-61 -59v-4h344v-113h-547z" />
<glyph unicode="&#xbe;" horiz-adv-x="1536" d="M61 590l35 102q84 -53 189 -53q88 0 135 45q43 39 43 94q0 72 -64.5 109t-150.5 37h-53v92h53q68 0 121 31q63 35 63 104q0 98 -129 98q-88 0 -168 -55l-37 94q100 66 232 66q115 0 182.5 -52.5t67.5 -140.5q0 -129 -156 -184v-4q82 -12 135 -66.5t53 -132.5 q0 -100 -86 -169.5t-235 -69.5q-147 0 -230 55zM352 -20l772 1374h113l-770 -1374h-115zM825 211v80l389 518h148v-498h123v-100h-123v-211h-133v211h-404zM969 313l2 -2h258v240q0 55 6 129h-4q-10 -20 -27.5 -49t-40.5 -64z" />
<glyph unicode="&#xbf;" horiz-adv-x="817" d="M111 -123q0 94 53 184q35 63 123 170q113 133 112 283v23l-2 51h158l6 -51q2 -10 2 -20.5v-20.5q0 -158 -127 -316q-141 -176 -141 -280q0 -176 192 -176q119 0 203 63l47 -131q-115 -80 -286 -80q-166 0 -258 92q-82 82 -82 209zM356 872q0 57 34 93t89 36q53 0 86 -37 t33 -92q0 -53 -34 -90t-87 -37t-87 37t-34 90z" />
<glyph unicode="&#xc0;" horiz-adv-x="1228" d="M51 0l459 1380h213l459 -1380h-189l-143 432h-477l-140 -432h-182zM309 1688h213l193 -232h-144zM408 571h407l-133 394q-12 35 -28.5 99t-41.5 157h-4q-10 -41 -27.5 -104.5t-39.5 -149.5z" />
<glyph unicode="&#xc1;" horiz-adv-x="1228" d="M51 0l459 1380h213l459 -1380h-189l-143 432h-477l-140 -432h-182zM408 571h407l-133 394q-23 72 -70 256h-4q-20 -84 -67 -254zM522 1454l193 240h215l-264 -240h-144z" />
<glyph unicode="&#xc2;" horiz-adv-x="1228" d="M51 0l459 1380h213l459 -1380h-189l-143 432h-477l-140 -432h-182zM354 1454l205 240h131l209 -240h-145l-127 152h-4l-125 -152h-144zM408 571h407l-133 394q-12 35 -28.5 99t-41.5 157h-4q-10 -41 -27.5 -104.5t-39.5 -149.5z" />
<glyph unicode="&#xc3;" horiz-adv-x="1228" d="M51 0l459 1380h213l459 -1380h-189l-143 432h-477l-140 -432h-182zM365 1464q0 92 34.5 146.5t100.5 54.5q51 0 123 -41q63 -37 96 -37q53 0 59 84h90q0 -98 -32.5 -146t-104.5 -48q-53 0 -123 39t-98 38q-43 0 -53 -90h-92zM408 571h407l-133 394q-12 35 -28.5 99 t-41.5 157h-4q-10 -41 -27.5 -104.5t-39.5 -149.5z" />
<glyph unicode="&#xc4;" horiz-adv-x="1228" d="M51 0l459 1380h213l459 -1380h-189l-143 432h-477l-140 -432h-182zM338 1579q0 43 28.5 72.5t69.5 29.5q43 0 71 -29.5t28 -72.5q0 -45 -28 -73.5t-73 -28.5q-43 0 -69.5 29.5t-26.5 72.5zM408 571h407l-133 394q-23 72 -70 256h-4q-20 -84 -67 -254zM709 1579 q0 43 28.5 72.5t71.5 29.5q41 0 68.5 -29.5t27.5 -72.5q0 -45 -27.5 -73.5t-72.5 -28.5q-41 0 -68.5 29.5t-27.5 72.5z" />
<glyph unicode="&#xc5;" horiz-adv-x="1228" d="M53 0l451 1356q-37 27 -59.5 68.5t-22.5 91.5q0 41 15.5 77.5t43 64.5t63.5 43t77 15q86 0 143 -57t57 -143q0 -51 -23.5 -93.5t-62.5 -70.5l451 -1352h-191l-143 432h-477l-139 -432h-183zM408 571h409l-137 404q-4 12 -22.5 73.5t-47.5 172.5h-4q-12 -61 -26.5 -117.5 t-30.5 -108.5zM518 1516q0 -41 31 -72t72 -31q43 0 73.5 31t30.5 72q0 43 -30.5 73.5t-73.5 30.5q-41 0 -72 -30.5t-31 -73.5z" />
<glyph unicode="&#xc6;" horiz-adv-x="1581" d="M0 0l616 1380h846v-147h-571l51 -442h504v-148h-483l59 -496h496v-147h-650l-59 485h-412l-215 -485h-182zM455 629h336l-43 397q-10 76 -25 227h-8q-49 -133 -86 -221z" />
<glyph unicode="&#xc7;" horiz-adv-x="1173" d="M74 678q0 326 194 524q197 199 510 199q205 0 318 -60l-43 -143q-115 55 -269 55q-242 0 -378 -147q-145 -152 -146 -422q0 -129 36 -231.5t102.5 -175t161.5 -110.5t216 -38q168 0 283 55l37 -141q-127 -59 -357 -61l-51 -82q59 -8 100 -48t41 -98q0 -162 -208 -162 q-82 0 -142 35l31 88q53 -29 108 -28q86 0 87 63q0 70 -158 86l86 154q-250 27 -402 203q-158 186 -157 485z" />
<glyph unicode="&#xc8;" horiz-adv-x="987" d="M154 0v1380h731v-147h-555v-438h524v-148h-524v-500h585v-147h-761zM242 1694h213l192 -238h-143z" />
<glyph unicode="&#xc9;" horiz-adv-x="987" d="M154 0v1380h731v-147h-555v-438h524v-148h-524v-500h585v-147h-761zM420 1454l192 240h213l-264 -240h-141z" />
<glyph unicode="&#xca;" horiz-adv-x="987" d="M154 0v1380h731v-147h-555v-438h524v-148h-524v-500h585v-147h-761zM248 1454l205 240h129l211 -240h-148l-125 152h-4l-127 -152h-141z" />
<glyph unicode="&#xcb;" horiz-adv-x="987" d="M154 0v1380h731v-147h-555v-438h524v-148h-524v-500h585v-147h-761zM240 1579q0 43 28.5 72.5t71.5 29.5t69.5 -29.5t26.5 -72.5q0 -45 -27.5 -73.5t-72.5 -28.5q-41 0 -68.5 29.5t-27.5 72.5zM612 1579q0 43 28 72.5t71 29.5t70.5 -29.5t27.5 -72.5q0 -45 -28.5 -73.5 t-71.5 -28.5t-70 29.5t-27 72.5z" />
<glyph unicode="&#xcc;" horiz-adv-x="485" d="M-59 1694h215l190 -238h-141zM154 0v1380h176v-1380h-176z" />
<glyph unicode="&#xcd;" horiz-adv-x="485" d="M139 1454l193 240h213l-264 -240h-142zM154 0v1380h176v-1380h-176z" />
<glyph unicode="&#xce;" horiz-adv-x="485" d="M-31 1454l205 240h131l209 -240h-145l-127 152h-4l-127 -152h-142zM154 0v1380h176v-1380h-176z" />
<glyph unicode="&#xcf;" horiz-adv-x="485" d="M-41 1579q0 43 27.5 72.5t70.5 29.5q41 0 69 -29.5t28 -72.5q0 -45 -28 -73.5t-73 -28.5q-41 0 -67.5 29.5t-26.5 72.5zM154 0v1380h176v-1380h-176zM330 1579q0 43 27.5 72.5t70.5 29.5t70.5 -29.5t27.5 -72.5q0 -45 -28.5 -73.5t-71.5 -28.5t-69.5 29.5t-26.5 72.5z " />
<glyph unicode="&#xd0;" horiz-adv-x="1345" d="M-2 631v141h166v594q88 14 179 21.5t189 7.5q362 0 543 -168q195 -178 195 -504q0 -172 -49.5 -309.5t-147.5 -231.5t-247.5 -144t-348.5 -50q-184 0 -313 12v631h-166zM340 137q47 -8 172 -8q281 0 426 150.5t145 441.5q0 252 -133 391q-139 141 -409 141 q-57 0 -106.5 -4t-94.5 -12v-465h360v-141h-360v-494z" />
<glyph unicode="&#xd1;" horiz-adv-x="1320" d="M154 0v1380h192l430 -694q139 -227 242 -450h4q-10 115 -15.5 256t-5.5 315v573h166v-1380h-178l-426 696q-82 135 -144.5 250t-107.5 213l-6 -2q8 -111 11 -252t3 -321v-584h-165zM428 1464v19q0 84 37 133t96 49q53 0 125 -41q63 -37 96 -37q49 0 60 84h90 q0 -195 -137 -194q-53 0 -123 39t-99 38q-43 0 -53 -90h-92z" />
<glyph unicode="&#xd2;" horiz-adv-x="1376" d="M74 680q0 301 157 502q172 221 467 221q287 0 453 -211q152 -194 152 -487q0 -309 -154 -508q-168 -217 -471 -217q-285 0 -451 210q-154 193 -153 490zM258 684q0 -219 102 -377q119 -184 326 -184q213 0 330 188q98 160 98 385q0 221 -100 377q-121 184 -326 184 q-209 0 -330 -188q-100 -156 -100 -385zM381 1694h213l192 -238h-141z" />
<glyph unicode="&#xd3;" horiz-adv-x="1376" d="M74 680q0 301 157 502q172 221 467 221q287 0 453 -211q152 -192 152 -487q0 -309 -154 -508q-170 -217 -471 -217q-285 0 -451 210q-154 195 -153 490zM258 684q0 -219 102 -377q119 -184 326 -184q213 0 330 188q98 160 98 385q0 219 -100 377q-119 184 -326 184 q-213 0 -330 -188q-100 -158 -100 -385zM604 1454l193 240h213l-262 -240h-144z" />
<glyph unicode="&#xd4;" horiz-adv-x="1376" d="M74 680q0 301 157 502q172 221 467 221q287 0 453 -211q152 -192 152 -487q0 -309 -154 -508q-170 -217 -471 -217q-285 0 -451 210q-154 195 -153 490zM258 684q0 -219 102 -377q119 -184 326 -184q213 0 330 188q98 160 98 385q0 219 -100 377q-119 184 -326 184 q-213 0 -330 -188q-100 -158 -100 -385zM416 1454l207 240h129l211 -240h-148l-127 152h-4l-125 -152h-143z" />
<glyph unicode="&#xd5;" horiz-adv-x="1376" d="M74 680q0 301 157 502q172 221 467 221q287 0 453 -211q152 -192 152 -487q0 -309 -154 -508q-170 -217 -471 -217q-285 0 -451 210q-154 195 -153 490zM258 684q0 -219 102 -377q119 -184 326 -184q213 0 330 188q98 160 98 385q0 219 -100 377q-119 184 -326 184 q-213 0 -330 -188q-100 -158 -100 -385zM436 1464q-2 90 35 145.5t100 55.5q53 0 121 -39t101 -39q51 0 57 84h92q2 -195 -137 -194q-51 0 -124 38.5t-97 38.5q-45 0 -54 -90h-94z" />
<glyph unicode="&#xd6;" horiz-adv-x="1376" d="M74 680q0 324 175 523.5t449 199.5q272 0 438.5 -193.5t166.5 -504.5q0 -344 -183 -543q-172 -182 -440 -182h-2q-268 0 -436 192.5t-168 507.5zM258 684q0 -231 111 -389q119 -172 315 -172h2q201 0 318 170q110 159 110 403q0 225 -104 383q-119 178 -322 178 q-205 0 -323 -176q-106 -160 -107 -397zM403 1579q0 43 30 72.5t71 29.5q43 0 69.5 -29.5t26.5 -72.5q0 -45 -27.5 -73.5t-70.5 -28.5t-71 29.5t-28 72.5zM776 1579q0 43 29 72.5t69 29.5q43 0 71 -29.5t28 -72.5q0 -45 -27.5 -73.5t-73.5 -28.5q-43 0 -69.5 29.5 t-26.5 72.5z" />
<glyph unicode="&#xd7;" horiz-adv-x="1220" d="M82 90l440 449l-440 448l88 90l440 -448l441 448l88 -90l-441 -448l441 -449l-90 -90l-439 449l-440 -449z" />
<glyph unicode="&#xd8;" horiz-adv-x="1376" d="M74 684q0 322 176 520q174 199 444 199q193 0 336 -107l117 164l106 -71l-123 -177q173 -195 173 -510q0 -346 -185 -542q-168 -180 -428 -180q-195 0 -340 108l-123 -172l-100 78l125 178q-178 193 -178 512zM254 692q0 -193 96 -368l4 2l588 837q-109 96 -250 97 q-205 0 -327 -177q-53 -78 -82 -176t-29 -215zM438 219q100 -98 250 -98q201 0 322 172q112 157 112 403q0 199 -92 357l-6 2z" />
<glyph unicode="&#xd9;" horiz-adv-x="1300" d="M152 561v819h178v-825q0 -207 81 -319.5t232 -112.5q328 0 328 432v825h176v-811q0 -289 -132 -439t-378 -150q-223 0 -346 131q-139 150 -139 450zM360 1694h213l193 -238h-141z" />
<glyph unicode="&#xda;" horiz-adv-x="1300" d="M152 561v819h178v-825q0 -219 90 -330q80 -102 223 -102q328 0 328 432v825h176v-811q0 -301 -146 -452q-131 -137 -364 -137q-223 0 -346 131q-139 147 -139 450zM555 1454l193 240h215l-265 -240h-143z" />
<glyph unicode="&#xdb;" horiz-adv-x="1300" d="M152 561v819h178v-825q0 -207 81 -319.5t232 -112.5q328 0 328 432v825h176v-811q0 -289 -132 -439t-378 -150q-223 0 -346 131q-139 150 -139 450zM391 1454l205 240h129l211 -240h-148l-124 152h-5l-127 -152h-141z" />
<glyph unicode="&#xdc;" horiz-adv-x="1300" d="M152 561v819h178v-825q0 -219 90 -330q80 -102 223 -102q328 0 328 432v825h176v-811q0 -301 -146 -452q-131 -137 -364 -137q-223 0 -346 131q-139 147 -139 450zM371 1579q0 43 28.5 72.5t71.5 29.5q41 0 68.5 -29.5t27.5 -72.5q0 -45 -27.5 -73.5t-72.5 -28.5 q-41 0 -68.5 29.5t-27.5 72.5zM741 1579q0 43 29 72.5t72 29.5t69.5 -29.5t26.5 -72.5q0 -45 -27.5 -73.5t-72.5 -28.5q-41 0 -69 29.5t-28 72.5z" />
<glyph unicode="&#xdd;" horiz-adv-x="1087" d="M27 1380h200l189 -379q86 -172 135 -286h4q45 111 137 289l193 376h200l-452 -792v-588h-178v586zM471 1454l191 240h215l-265 -240h-141z" />
<glyph unicode="&#xde;" horiz-adv-x="1069" d="M154 0v1380h174v-270q78 14 190 14q238 0 359 -110q112 -105 112 -269q0 -211 -145 -325q-137 -109 -365 -109q-45 0 -82 3t-69 8v-322h-174zM328 465q57 -12 149 -12q160 0 248 72.5t88 201.5q0 258 -311 258q-109 0 -174 -16v-504z" />
<glyph unicode="&#xdf;" horiz-adv-x="1105" d="M147 0v926q0 311 146 444q113 104 295 105q152 0 252 -91q109 -94 108 -256q0 -98 -47 -167q-145 -61 -145 -164q0 -74 102 -181q82 -82 113 -133q51 -82 51 -180q0 -145 -98.5 -234t-264.5 -89q-129 0 -213 40l31 136q82 -39 170 -39q94 0 146.5 49t52.5 123 q0 104 -111 211q-156 150 -155 272q0 162 180 250q16 39 16 90q0 104 -57 162.5t-152 58.5q-242 0 -241 -401v-932h-179z" />
<glyph unicode="&#xe0;" horiz-adv-x="970" d="M72 262q0 180 148.5 274.5t426.5 94.5h8v20q0 229 -221 230q-143 0 -252 -72l-41 119q133 84 322 84q369 0 368 -402v-374q0 -141 17 -236h-162l-16 123h-4q-100 -143 -297 -143q-139 0 -222 86q-76 78 -75 196zM190 1405h195l178 -293h-125zM250 283q0 -86 47 -129 t119 -43q90 0 153 51q41 33 64.5 75t23.5 95v174h-30q-377 0 -377 -223z" />
<glyph unicode="&#xe1;" horiz-adv-x="970" d="M72 262q0 180 151.5 275.5t431.5 93.5v20q0 229 -221 230q-143 0 -252 -72l-41 119q131 84 322 84q369 0 368 -402v-374q1 -146 17 -236h-162l-16 123h-4q-102 -143 -297 -143q-139 0 -222 86q-76 80 -75 196zM250 283q0 -84 47 -128t119 -44q88 0 153 51q57 45 80 112 q8 27 8 58v174q-408 8 -407 -223zM381 1112l178 293h195l-248 -293h-125z" />
<glyph unicode="&#xe2;" horiz-adv-x="970" d="M72 262q0 180 148.5 274.5t426.5 94.5h8v20q0 229 -221 230q-143 0 -252 -72l-41 119q133 84 322 84q369 0 368 -402v-374q0 -141 17 -236h-162l-16 123h-4q-100 -143 -297 -143q-139 0 -222 86q-76 78 -75 196zM227 1112l189 293h119l192 -293h-133l-117 193h-4 l-117 -193h-129zM250 283q0 -86 47 -129t119 -43q90 0 153 51q41 33 64.5 75t23.5 95v174h-30q-377 0 -377 -223z" />
<glyph unicode="&#xe3;" horiz-adv-x="970" d="M72 262q0 180 148.5 274.5t426.5 94.5h8v20q0 229 -221 230q-143 0 -252 -72l-41 119q133 84 322 84q369 0 368 -402v-374q0 -141 17 -236h-162l-16 123h-4q-100 -143 -297 -143q-139 0 -222 86q-76 78 -75 196zM231 1149q0 88 34 144.5t100 56.5q47 0 129 -45 q66 -35 92 -35q47 0 53 86h88v-8q0 -186 -135 -187q-49 0 -125 43q-66 35 -90 35q-43 0 -53 -90h-93zM250 283q0 -86 47 -129t119 -43q90 0 153 51q41 33 64.5 75t23.5 95v174h-30q-377 0 -377 -223z" />
<glyph unicode="&#xe4;" horiz-adv-x="970" d="M72 262q0 180 151.5 275.5t431.5 93.5v20q0 229 -221 230q-143 0 -252 -72l-41 119q131 84 322 84q369 0 368 -402v-374q1 -146 17 -236h-162l-16 123h-4q-102 -143 -297 -143q-139 0 -222 86q-76 80 -75 196zM201 1241q0 43 29.5 72.5t72.5 29.5q41 0 68.5 -29.5 t27.5 -72.5t-28.5 -72.5t-71.5 -29.5q-41 0 -69.5 30.5t-28.5 71.5zM250 283q0 -84 47 -128t119 -44q88 0 153 51q57 45 80 112q8 27 8 58v174q-408 8 -407 -223zM571 1241q0 43 30 72.5t71 29.5q43 0 70.5 -29.5t27.5 -72.5t-28.5 -72.5t-71.5 -29.5t-71 30.5t-28 71.5z " />
<glyph unicode="&#xe5;" horiz-adv-x="970" d="M72 262q0 180 147.5 274.5t427.5 94.5h8v20q0 229 -221 230q-143 0 -252 -72l-41 119q133 84 322 84q369 0 368 -402v-374q0 -72 4.5 -130.5t12.5 -105.5h-162l-16 123h-4q-100 -143 -297 -143q-135 0 -222 86q-76 76 -75 196zM250 283q0 -86 47 -129t119 -43 q90 0 153 51q57 45 80 112q8 23 8 58v174h-30q-377 0 -377 -223zM287 1288q0 82 57 139.5t139 57.5t139.5 -57.5t57.5 -139.5q0 -41 -15.5 -75.5t-42 -61.5t-62.5 -42t-77 -15t-76.5 15t-62.5 42t-42 61.5t-15 75.5zM381 1288q0 -41 29.5 -71.5t72.5 -30.5t73 30.5t30 71.5 q0 43 -30 74t-73 31t-72.5 -31t-29.5 -74z" />
<glyph unicode="&#xe6;" horiz-adv-x="1554" d="M72 262q0 174 152.5 266.5t432.5 92.5v41q0 74 -39 131q-57 88 -186 88q-143 0 -250 -72l-41 117q137 88 303 88q248 0 316 -207h4q104 207 338 207q199 0 301 -164q78 -127 78 -289q0 -49 -6 -82h-650v-16q0 -166 85 -255t227 -89q147 0 262 55l33 -127 q-131 -66 -320 -65q-129 0 -228.5 55t-140.5 160h-6q-96 -215 -360 -215q-143 0 -227 84q-78 82 -78 196zM248 276q0 -76 48 -119.5t120 -43.5q53 0 98 17t78 49t51.5 76t18.5 95v150h-31q-383 0 -383 -224zM825 606h484v23q0 88 -45 157q-63 100 -181 101q-119 0 -192 -96 q-63 -84 -66 -185z" />
<glyph unicode="&#xe7;" horiz-adv-x="897" d="M78 485q0 233 143 379q143 147 379 148q147 0 242 -51l-39 -138q-88 47 -203 47q-162 0 -254 -112q-88 -100 -88 -264q0 -84 24.5 -153t69.5 -117t107.5 -74.5t136.5 -26.5q106 0 213 47l33 -135q-106 -49 -260 -53l-52 -82q59 -8 101.5 -47t42.5 -95q0 -166 -213 -166 q-78 0 -137 35l30 88q49 -31 109 -30q88 0 88 65q-4 70 -160 86l86 152q-182 23 -291 157q-109 137 -108 340z" />
<glyph unicode="&#xe8;" horiz-adv-x="1007" d="M78 481q0 229 123 381q127 152 334 152q211 0 317 -162q82 -125 82 -299q0 -55 -6 -88h-680q4 -164 92 -254t242 -90q145 0 266 49l31 -127q-135 -59 -324 -59q-111 0 -199 34.5t-150.5 100t-95 157t-32.5 205.5zM250 594h512q0 117 -47 190q-63 100 -195 101 q-123 0 -196 -99q-59 -80 -74 -192zM266 1405h197l178 -293h-127z" />
<glyph unicode="&#xe9;" horiz-adv-x="1007" d="M78 481q0 231 124 382t333 151q211 0 317 -162q82 -125 82 -299q0 -53 -6 -88h-680q4 -174 102 -264q86 -80 232 -80q147 0 266 49l31 -127q-133 -59 -324 -59q-221 0 -349 135t-128 362zM250 594h512q2 113 -47 190q-63 100 -195 101q-123 0 -196 -99q-59 -80 -74 -192z M438 1112l178 293h195l-248 -293h-125z" />
<glyph unicode="&#xea;" horiz-adv-x="1007" d="M78 481q0 229 123 381q127 152 334 152q211 0 317 -162q82 -125 82 -299q0 -55 -6 -88h-680q4 -164 92 -254t242 -90q145 0 266 49l31 -127q-135 -59 -324 -59q-111 0 -199 34.5t-150.5 100t-95 157t-32.5 205.5zM250 594h512q0 117 -47 190q-63 100 -195 101 q-123 0 -196 -99q-59 -80 -74 -192zM281 1112l188 293h119l192 -293h-133l-117 193h-4l-116 -193h-129z" />
<glyph unicode="&#xeb;" horiz-adv-x="1007" d="M78 481q0 229 123 381q127 152 334 152q211 0 317 -162q82 -125 82 -299q0 -55 -6 -88h-680q4 -164 92 -254t242 -90q145 0 266 49l31 -127q-135 -59 -324 -59q-111 0 -199 34.5t-150.5 100t-95 157t-32.5 205.5zM250 594h512q0 117 -47 190q-63 100 -195 101 q-123 0 -196 -99q-59 -80 -74 -192zM256 1241q0 43 29.5 72.5t70.5 29.5q43 0 71 -29.5t28 -72.5t-29 -72.5t-72 -29.5t-70.5 30.5t-27.5 71.5zM627 1241q0 43 28.5 72.5t71.5 29.5t70.5 -29.5t27.5 -72.5t-28.5 -72.5t-71.5 -29.5t-70.5 30.5t-27.5 71.5z" />
<glyph unicode="&#xec;" horiz-adv-x="473" d="M-55 1405h194l178 -293h-124zM147 0v991h179v-991h-179z" />
<glyph unicode="&#xed;" horiz-adv-x="473" d="M147 0v991h179v-991h-179zM147 1112l179 293h194l-248 -293h-125z" />
<glyph unicode="&#xee;" horiz-adv-x="473" d="M-14 1112l190 293h119l192 -293h-133l-116 193h-5l-116 -193h-131zM147 0v991h179v-991h-179z" />
<glyph unicode="&#xef;" horiz-adv-x="473" d="M-45 1241q0 43 27.5 72.5t70.5 29.5t70 -29.5t27 -72.5t-28 -72.5t-71 -29.5t-69.5 30.5t-26.5 71.5zM147 0v991h179v-991h-179zM324 1241q0 43 28.5 72.5t71.5 29.5q41 0 68.5 -29.5t27.5 -72.5t-27.5 -72.5t-72.5 -29.5q-41 0 -68.5 30.5t-27.5 71.5z" />
<glyph unicode="&#xf0;" horiz-adv-x="1087" d="M80 483q0 227 135 373q129 135 317 135q125 0 216 -84l4 6q-86 143 -232 258l-284 -133l-39 88l231 111q-39 29 -91 60.5t-118 64.5l80 111q78 -35 147.5 -77t133.5 -89l256 123l45 -89l-215 -102q166 -141 254 -318.5t88 -404.5q0 -268 -148 -412q-127 -125 -321 -124 q-201 0 -330 137t-129 366zM258 487q0 -143 68 -249q80 -125 213 -125q141 0 219 127q65 109 65 256q0 190 -67 276q-78 98 -213 98q-139 0 -217 -127q-68 -109 -68 -256z" />
<glyph unicode="&#xf1;" horiz-adv-x="1116" d="M139 991h158l10 -160h4q39 74 119 125q88 55 203 56q133 0 221 -82q121 -111 121 -334v-596h-178v575q0 291 -224 291q-109 0 -178 -82q-70 -78 -69 -186v-598h-179v723q0 61 -2 129t-6 139zM313 1149q0 88 34 144.5t97 56.5q47 0 129 -45q66 -35 95 -35q47 0 51 86h90 v-8q0 -186 -135 -187q-49 0 -125 43q-66 35 -90 35q-47 0 -53 -90h-93z" />
<glyph unicode="&#xf2;" horiz-adv-x="1101" d="M78 487q0 229 125 373q133 152 356 152q217 0 344 -148q121 -143 121 -360q0 -229 -125 -373q-133 -152 -356 -151q-215 0 -344 147q-121 145 -121 360zM256 494q0 -147 72 -256q80 -125 221 -125q137 0 221 127q72 113 72 258q0 150 -70 256q-80 125 -221 125 q-143 0 -225 -125q-70 -106 -70 -260zM283 1405h196l178 -293h-127z" />
<glyph unicode="&#xf3;" horiz-adv-x="1101" d="M78 487q0 227 125 373q133 152 356 152q215 0 344 -148q121 -141 121 -360q0 -227 -125 -373q-133 -152 -356 -151q-215 0 -344 147q-121 143 -121 360zM256 494q0 -147 72 -256q80 -125 221 -125q139 0 221 127q72 111 72 258q0 150 -70 256q-80 125 -221 125 q-145 0 -225 -125q-70 -106 -70 -260zM449 1112l178 293h194l-248 -293h-124z" />
<glyph unicode="&#xf4;" horiz-adv-x="1101" d="M78 487q0 227 125 373q133 152 356 152q215 0 344 -148q121 -141 121 -360q0 -227 -125 -373q-133 -152 -356 -151q-215 0 -344 147q-121 143 -121 360zM256 494q0 -147 72 -256q80 -125 221 -125q139 0 221 127q72 111 72 258q0 150 -70 256q-80 125 -221 125 q-145 0 -225 -125q-70 -106 -70 -260zM301 1112l188 293h119l195 -293h-135l-117 193h-4l-117 -193h-129z" />
<glyph unicode="&#xf5;" horiz-adv-x="1101" d="M78 487q0 227 125 373q133 152 356 152q215 0 344 -148q121 -141 121 -360q0 -227 -125 -373q-133 -152 -356 -151q-215 0 -344 147q-121 143 -121 360zM256 494q0 -147 72 -256q80 -125 221 -125q139 0 221 127q72 111 72 258q0 150 -70 256q-80 125 -221 125 q-145 0 -225 -125q-70 -106 -70 -260zM303 1149q-2 88 34 144.5t99 56.5q45 0 129 -45q66 -35 92 -35q47 0 54 86h88q2 -195 -135 -195q-47 0 -125 43q-63 35 -90 35q-45 0 -54 -90h-92z" />
<glyph unicode="&#xf6;" horiz-adv-x="1101" d="M78 487q0 227 125 373q133 152 356 152q215 0 344 -148q121 -141 121 -360q0 -227 -125 -373q-133 -152 -356 -151q-215 0 -344 147q-121 143 -121 360zM256 494q0 -147 72 -256q80 -125 221 -125q139 0 221 127q72 111 72 258q0 150 -70 256q-80 125 -221 125 q-145 0 -225 -125q-70 -106 -70 -260zM266 1241q0 43 30 72.5t73 29.5q41 0 68.5 -29.5t27.5 -72.5t-28.5 -72.5t-71.5 -29.5q-41 0 -70 30.5t-29 71.5zM637 1241q0 43 28.5 72.5t71.5 29.5t71 -29.5t28 -72.5t-29 -72.5t-72 -29.5t-70.5 30.5t-27.5 71.5z" />
<glyph unicode="&#xf7;" horiz-adv-x="1220" d="M80 485v123h1057v-123h-1057zM502 186q0 49 29.5 82t78.5 33q47 0 77 -33t30 -82q0 -111 -111 -110q-47 0 -75.5 31.5t-28.5 78.5zM504 905q0 49 29.5 81t78.5 32q47 0 77 -32t30 -81q0 -113 -111 -112q-47 0 -75.5 32.5t-28.5 79.5z" />
<glyph unicode="&#xf8;" horiz-adv-x="1101" d="M78 489q0 240 139 385q131 137 336 138h2q135 0 244 -68l84 121l82 -55l-86 -127q145 -145 145 -381q0 -252 -152 -398q-131 -125 -321 -124q-141 0 -246 67l-88 -123l-76 62l84 120q-147 143 -147 383zM252 494q0 -145 70 -246l4 -2l395 573q-66 59 -170 60 q-145 0 -229 -127q-70 -106 -70 -258zM387 170q63 -57 162 -57q135 0 219 108q84 109 84 275q0 139 -68 241h-4z" />
<glyph unicode="&#xf9;" horiz-adv-x="1105" d="M141 408v583h178v-551q0 -315 216 -315q80 0 149 53q57 45 82 111q16 43 16 92v610h179v-721q0 -66 2 -133t6 -137h-158l-10 158h-6q-102 -178 -320 -178q-160 0 -247 111.5t-87 316.5zM291 1405h194l179 -293h-127z" />
<glyph unicode="&#xfa;" horiz-adv-x="1105" d="M141 408v583h178v-551q0 -315 216 -315q82 0 149 53q57 45 82 111q16 41 16 92v610h179v-721q0 -133 8 -270h-158l-10 158h-6q-102 -178 -320 -178q-139 0 -225 86q-109 111 -109 342zM469 1112l178 293h195l-248 -293h-125z" />
<glyph unicode="&#xfb;" horiz-adv-x="1105" d="M141 408v583h178v-551q0 -315 216 -315q80 0 149 53q57 45 82 111q16 43 16 92v610h179v-721q0 -66 2 -133t6 -137h-158l-10 158h-6q-102 -178 -320 -178q-160 0 -247 111.5t-87 316.5zM303 1112l191 293h116l195 -293h-135l-117 193h-4l-117 -193h-129z" />
<glyph unicode="&#xfc;" horiz-adv-x="1105" d="M141 408v583h178v-551q0 -315 216 -315q82 0 149 53q57 45 82 111q16 41 16 92v610h179v-721q0 -133 8 -270h-158l-10 158h-6q-102 -178 -320 -178q-139 0 -225 86q-109 111 -109 342zM274 1241q0 43 30 72.5t73 29.5q41 0 68.5 -29.5t27.5 -72.5t-28.5 -72.5 t-71.5 -29.5q-41 0 -70 30.5t-29 71.5zM645 1241q0 43 30 72.5t70 29.5q43 0 71 -29.5t28 -72.5t-29 -72.5t-72 -29.5t-70.5 30.5t-27.5 71.5z" />
<glyph unicode="&#xfd;" horiz-adv-x="948" d="M20 991h193l211 -585q31 -82 61 -201h7q18 66 61 205l190 581h189l-262 -702q-100 -264 -168 -393q-78 -147 -166 -228q-106 -96 -217 -117l-47 150q84 27 157 90q92 78 146 199q14 29 14 41q0 14 -12 47zM401 1112l179 293h194l-248 -293h-125z" />
<glyph unicode="&#xfe;" horiz-adv-x="1142" d="M147 -403v1773h177v-532h4q106 174 327 174q90 0 162 -33t131 -105q117 -139 117 -366q0 -258 -137 -402q-121 -127 -303 -126q-199 0 -297 151h-4v-534h-177zM324 389q0 -51 18 -90q29 -86 99.5 -133t156.5 -47q131 0 209 103.5t78 281.5q0 158 -76 260 q-76 106 -207 106q-86 0 -156.5 -53t-101.5 -141q-20 -53 -20 -98v-189z" />
<glyph unicode="&#xff;" horiz-adv-x="948" d="M20 991h193l211 -585q16 -41 30.5 -91.5t30.5 -109.5h7q10 33 24 84t37 121l190 581h189l-262 -702q-49 -133 -92 -230.5t-76 -162.5q-78 -147 -166 -228q-109 -96 -217 -117l-47 150q88 29 157 90q92 78 146 199q14 27 14 41q0 12 -12 47zM211 1241q0 43 29.5 72.5 t72.5 29.5q41 0 69 -29.5t28 -72.5t-28 -72.5t-73 -29.5q-41 0 -69.5 30.5t-28.5 71.5zM582 1241q0 43 29.5 72.5t70.5 29.5q43 0 70.5 -29.5t27.5 -72.5t-28.5 -72.5t-71.5 -29.5q-41 0 -69.5 30.5t-28.5 71.5z" />
<glyph unicode="&#x152;" horiz-adv-x="1792" d="M74 680q0 334 188 532q180 190 479 191q51 0 150 -12q51 -4 88 -7.5t63 -3.5h646v-147h-555v-440h522v-146h-522v-500h585v-147h-692q-20 0 -61 -3t-86 -7t-87 -7t-63 -3q-307 0 -485 202q-170 195 -170 498zM260 688q0 -258 133 -414q135 -152 369 -151q125 0 192 27 v1079q-92 29 -211 28q-221 0 -352 -155q-131 -152 -131 -414z" />
<glyph unicode="&#x153;" horiz-adv-x="1732" d="M78 492q0 238 135 382q129 139 330 140q125 0 223 -61.5t143 -172.5h4q106 233 355 234q207 0 311 -164q80 -127 80 -297q0 -27 -1 -47.5t-3 -36.5h-660q0 -168 92 -262q86 -88 230 -88q127 0 260 55l33 -127q-121 -66 -316 -65q-274 0 -383 231h-6q-53 -115 -157 -178 q-47 -29 -102.5 -40t-115.5 -13q-197 0 -325 139q-127 139 -127 371zM258 496q0 -147 70 -254q80 -127 217 -127q143 0 219 125q65 108 65 258q0 152 -65 258q-76 125 -221 125q-141 0 -219 -127q-66 -109 -66 -258zM993 596h492v14q0 102 -45 174q-61 100 -189 101 q-121 0 -190 -99q-59 -80 -68 -190z" />
<glyph unicode="&#x178;" horiz-adv-x="1087" d="M27 1380h200l189 -379q43 -86 76.5 -157.5t58.5 -128.5h4q23 55 56.5 126.5t80.5 162.5l193 376h200l-452 -792v-588h-178v586zM266 1579q0 43 29 72.5t72 29.5q41 0 68.5 -29.5t27.5 -72.5q0 -45 -27.5 -73.5t-73.5 -28.5q-41 0 -68.5 29.5t-27.5 72.5zM639 1579 q0 43 27.5 72.5t70.5 29.5t71 -29.5t28 -72.5q0 -45 -29 -73.5t-74 -28.5q-41 0 -67.5 29.5t-26.5 72.5z" />
<glyph unicode="&#x2c6;" horiz-adv-x="614" d="M57 1112l189 293h119l192 -293h-133l-117 193h-4l-117 -193h-129z" />
<glyph unicode="&#x2dc;" horiz-adv-x="614" d="M59 1149q0 88 34 144.5t100 56.5q45 0 129 -45q66 -35 92 -35q47 0 53 86h88v-8q0 -186 -135 -187q-49 0 -125 43q-66 35 -90 35q-47 0 -53 -90h-93z" />
<glyph unicode="&#x2000;" horiz-adv-x="858" />
<glyph unicode="&#x2001;" horiz-adv-x="1716" />
<glyph unicode="&#x2002;" horiz-adv-x="858" />
<glyph unicode="&#x2003;" horiz-adv-x="1716" />
<glyph unicode="&#x2004;" horiz-adv-x="572" />
<glyph unicode="&#x2005;" horiz-adv-x="429" />
<glyph unicode="&#x2006;" horiz-adv-x="286" />
<glyph unicode="&#x2007;" horiz-adv-x="286" />
<glyph unicode="&#x2008;" horiz-adv-x="214" />
<glyph unicode="&#x2009;" horiz-adv-x="343" />
<glyph unicode="&#x200a;" horiz-adv-x="95" />
<glyph unicode="&#x2010;" horiz-adv-x="624" d="M61 487v131h502v-131h-502z" />
<glyph unicode="&#x2011;" horiz-adv-x="624" d="M61 487v131h502v-131h-502z" />
<glyph unicode="&#x2012;" horiz-adv-x="624" d="M61 487v131h502v-131h-502z" />
<glyph unicode="&#x2013;" horiz-adv-x="1024" d="M61 461v121h902v-121h-902z" />
<glyph unicode="&#x2014;" horiz-adv-x="2048" d="M205 461v121h1638v-121h-1638z" />
<glyph unicode="&#x2018;" horiz-adv-x="419" d="M70 918q84 305 190 485l113 12q-82 -223 -121 -477z" />
<glyph unicode="&#x2019;" horiz-adv-x="419" d="M68 918q84 225 120 479l185 18q-84 -303 -191 -483z" />
<glyph unicode="&#x201a;" horiz-adv-x="419" d="M43 -240q82 225 119 478l184 18q-84 -301 -190 -481z" />
<glyph unicode="&#x201c;" horiz-adv-x="718" d="M68 918q84 305 192 485l113 12q-82 -223 -121 -477zM371 918q82 305 190 485l113 12q-82 -223 -121 -477z" />
<glyph unicode="&#x201d;" horiz-adv-x="718" d="M68 918q82 225 120 479l183 18q-82 -303 -191 -483zM369 918q82 225 120 479l185 18q-84 -303 -193 -483z" />
<glyph unicode="&#x201e;" horiz-adv-x="722" d="M41 -240q82 225 121 478l182 18q-82 -301 -190 -481zM342 -240q82 225 121 478l184 18q-84 -301 -192 -481z" />
<glyph unicode="&#x2022;" horiz-adv-x="573" d="M74 705q0 88 61.5 150.5t151.5 62.5t152.5 -62.5t62.5 -150.5q0 -90 -63.5 -153t-153.5 -63q-88 0 -149.5 63.5t-61.5 152.5z" />
<glyph unicode="&#x2026;" horiz-adv-x="2048" d="M221 106q0 53 34 91.5t87 38.5q55 0 88 -37.5t33 -92.5q0 -57 -34 -91.5t-89 -34.5q-53 0 -86 35.5t-33 90.5zM903 106q0 53 33 91.5t88 38.5q53 0 86 -37.5t33 -92.5q0 -57 -34 -91.5t-89 -34.5q-53 0 -85 36.5t-32 89.5zM1583 106q0 53 34 91.5t87 38.5q55 0 87 -37.5 t32 -92.5q0 -57 -34 -91.5t-89 -34.5q-51 0 -84 36.5t-33 89.5z" />
<glyph unicode="&#x202f;" horiz-adv-x="343" />
<glyph unicode="&#x2039;" horiz-adv-x="516" d="M57 516l269 375h143l-268 -375l270 -375h-145z" />
<glyph unicode="&#x203a;" horiz-adv-x="516" d="M47 141l270 375l-270 375h143l269 -375l-269 -375h-143z" />
<glyph unicode="&#x205f;" horiz-adv-x="429" />
<glyph unicode="&#x20ac;" d="M45 494l23 100h129q-2 14 -2 28.5v30.5q0 57 6 111h-156l23 100h145q43 229 173 359.5t329 130.5q162 0 246 -66l-35 -137q-100 63 -197 63q-281 0 -342 -350h473l-22 -100h-461q-2 -27 -3 -52.5t-1 -54.5v-63h424l-23 -100h-393q49 -377 324 -377q109 0 206 67l33 -131 q-96 -74 -254 -73q-199 0 -325.5 133t-159.5 381h-160z" />
<glyph unicode="&#x2122;" horiz-adv-x="1622" d="M31 1276v104h608v-104h-244v-711h-123v711h-241zM670 565l61 815h162l158 -446q12 -33 57 -201h4q16 72 55 203l158 444h158l61 -815h-121l-34 494q0 70 -3 217h-6q-43 -158 -67 -229l-168 -472h-94l-164 484q-14 39 -60 217h-4q-2 -72 -6 -215l-31 -496h-116z" />
<glyph unicode="&#x25fc;" horiz-adv-x="993" d="M0 0v993h993v-993h-993z" />
<glyph unicode="&#xfb01;" horiz-adv-x="1056" d="M29 856v135h137v56q0 197 111.5 312.5t316.5 115.5q158 0 248 -66l-49 -135q-86 55 -207 55q-244 0 -244 -289v-49h567v-991h-176v856h-389v-856h-178v856h-137z" />
<glyph unicode="&#xfb02;" horiz-adv-x="1056" d="M29 856v135h137v43q0 221 137 340q113 100 313 101q174 0 295 -66v-1409h-178v1309q-51 27 -145 26q-246 0 -246 -293v-51h229v-135h-227v-856h-178v856h-137z" />
<glyph unicode="&#xfb03;" horiz-adv-x="1542" d="M29 860v131h137v56q0 215 112.5 321.5t329.5 106.5q137 0 244 -41l22 -11l13 7q47 25 98 35t105 10q137 0 233 -50l-41 -122q-82 45 -186 45q-125 0 -189.5 -77t-64.5 -224v-56h555v-991h-164v860h-391v-860h-164v860h-348v-860h-164v860h-137zM330 991h348v39 q0 168 55 252q6 10 10.5 15.5t12.5 15.5q-2 0 -5 2t-8 4q-6 2 -12 6q-68 29 -139 29q-49 0 -96 -12.5t-84 -45t-59.5 -91t-22.5 -148.5v-66z" />
<glyph unicode="&#xfb04;" horiz-adv-x="1538" d="M29 860v131h137v60q0 217 115.5 320.5t326.5 103.5q145 0 250 -48l12 -4l13 7q88 45 198 45q90 0 162 -14.5t150 -53.5v-1407h-164v1323q-72 25 -144 25q-117 0 -181 -76t-64 -219v-62h237v-131h-237v-860h-164v860h-346v-860h-164v860h-137zM330 991h346v39 q0 168 55 252q6 10 10 15.5t13 15.5q-2 0 -5.5 2t-7.5 4q-6 2 -12 6q-68 29 -139 29q-49 0 -95 -12.5t-83 -45t-59.5 -91t-22.5 -148.5v-66z" />
</font>
</defs>
</svg>
